<svg width="338" height="256" viewBox="0 0 338 256" fill="none" xmlns="http://www.w3.org/2000/svg">
<g clip-path="url(#clip0)">
<path d="M327.652 239.472L328.997 236.163C330.63 235.722 332.287 235.374 333.96 235.12L333.85 236.729L334.538 235.035C336.61 234.742 338 234.678 338 234.678C338 234.678 335.206 241.382 330.63 246.171L326.046 246.338L329.453 247.319C328.89 247.833 328.294 248.312 327.67 248.751C321.366 253.161 314.814 254.679 313.035 252.142C311.257 249.605 314.926 243.973 321.23 239.563C323.269 238.207 325.504 237.172 327.857 236.493L327.652 239.472Z" fill="#E6E6E6"/>
<path d="M315.758 224.29L314.053 219.401C315.41 217.36 316.881 215.397 318.459 213.522L319.88 215.379L319.007 212.876C320.981 210.576 322.435 209.178 322.435 209.178C322.435 209.178 325.815 219.149 325.418 228.739L320.587 233.304L325.237 231.114C325.116 232.213 324.925 233.303 324.667 234.378C322.026 245.207 316.346 253.124 311.979 252.061C307.611 250.998 306.212 241.358 308.852 230.529C309.774 227.104 311.216 223.84 313.128 220.851L315.758 224.29Z" fill="#E6E6E6"/>
<path d="M279.188 256C309.284 256 333.682 254.742 333.682 253.19C333.682 251.638 309.284 250.38 279.188 250.38C249.091 250.38 224.693 251.638 224.693 253.19C224.693 254.742 249.091 256 279.188 256Z" fill="#E6E6E6"/>
<path d="M95.9261 43.6627H57.4288V44.3652H95.9261C97.8214 44.3652 99.6391 45.1173 100.979 46.4562C102.32 47.7951 103.072 49.611 103.072 51.5044C103.072 53.3979 102.32 55.2137 100.979 56.5526C99.6391 57.8915 97.8214 58.6436 95.9261 58.6436H37.673C35.7777 58.6436 33.96 57.8915 32.6198 56.5526C31.2796 55.2137 30.5266 53.3979 30.5266 51.5044C30.5266 49.611 31.2796 47.7951 32.6198 46.4562C33.96 45.1173 35.7777 44.3652 37.673 44.3652H39.8499V43.6627H37.673C35.5912 43.6627 33.5946 44.4889 32.1226 45.9595C30.6505 47.4301 29.8235 49.4247 29.8235 51.5044C29.8235 53.5842 30.6505 55.5787 32.1226 57.0493C33.5946 58.5199 35.5912 59.3461 37.673 59.3461H95.9261C98.0079 59.3461 100.004 58.5199 101.477 57.0493C102.949 55.5787 103.776 53.5842 103.776 51.5044C103.776 49.4247 102.949 47.4301 101.477 45.9595C100.004 44.4889 98.0079 43.6627 95.9261 43.6627Z" fill="#CCCCCC"/>
<path d="M95.9261 67.8973H57.4288V68.5998H95.9261C97.8214 68.5998 99.6391 69.3519 100.979 70.6908C102.32 72.0297 103.072 73.8455 103.072 75.739C103.072 77.6324 102.32 79.4483 100.979 80.7872C99.6391 82.1261 97.8214 82.8782 95.9261 82.8782H37.673C35.7777 82.8782 33.96 82.1261 32.6198 80.7872C31.2796 79.4483 30.5266 77.6324 30.5266 75.739C30.5266 73.8455 31.2796 72.0297 32.6198 70.6908C33.96 69.3519 35.7777 68.5998 37.673 68.5998H39.8499V67.8973H37.673C35.5921 67.8987 33.5969 68.7255 32.126 70.196C30.6551 71.6664 29.8289 73.6602 29.8289 75.739C29.8289 77.8178 30.6551 79.8116 32.126 81.282C33.5969 82.7525 35.5921 83.5793 37.673 83.5807H95.9261C98.007 83.5793 100.002 82.7525 101.473 81.282C102.944 79.8116 103.77 77.8178 103.77 75.739C103.77 73.6602 102.944 71.6664 101.473 70.196C100.002 68.7255 98.007 67.8987 95.9261 67.8973Z" fill="#1976D3"/>
<path d="M95.926 92.1319H57.4288V92.8344H95.926C97.8214 92.8344 99.6391 93.5865 100.979 94.9254C102.32 96.2642 103.072 98.0801 103.072 99.9736C103.072 101.867 102.32 103.683 100.979 105.022C99.6391 106.361 97.8214 107.113 95.926 107.113H37.673C35.7777 107.113 33.96 106.361 32.6198 105.022C31.2796 103.683 30.5266 101.867 30.5266 99.9736C30.5266 98.0801 31.2796 96.2642 32.6198 94.9254C33.96 93.5865 35.7777 92.8344 37.673 92.8344H39.8499V92.1319H37.673C35.5912 92.1319 33.5946 92.9581 32.1226 94.4287C30.6505 95.8993 29.8235 97.8938 29.8235 99.9736C29.8235 102.053 30.6505 104.048 32.1226 105.518C33.5946 106.989 35.5912 107.815 37.673 107.815H95.926C98.0069 107.814 100.002 106.987 101.473 105.517C102.944 104.046 103.77 102.052 103.77 99.9736C103.77 97.8948 102.944 95.901 101.473 94.4306C100.002 92.9601 98.0069 92.1333 95.926 92.1319Z" fill="#CCCCCC"/>
<path d="M44.1953 41.8071C43.6468 41.8161 43.1239 42.0401 42.7392 42.4307C42.3545 42.8214 42.1389 43.3474 42.1389 43.8954C42.1389 44.4434 42.3545 44.9695 42.7392 45.3602C43.1239 45.7508 43.6468 45.9748 44.1953 45.9838H53.3664C53.9205 45.9924 54.4554 45.7809 54.8534 45.3957C55.2515 45.0105 55.4802 44.4832 55.4893 43.9297C55.4984 43.3762 55.2872 42.8416 54.902 42.4436C54.5168 42.0456 53.9892 41.8166 53.4351 41.8071C53.4122 41.8067 53.3893 41.8067 53.3664 41.8071H44.1953Z" fill="#3F3D56"/>
<path d="M44.1952 66.3927C43.6467 66.4017 43.1237 66.6257 42.739 67.0163C42.3543 67.407 42.1387 67.9331 42.1387 68.4811C42.1387 69.0291 42.3543 69.5552 42.739 69.9459C43.1237 70.3365 43.6467 70.5605 44.1952 70.5695H53.3663C53.9207 70.5786 54.4561 70.3673 54.8545 69.9821C55.253 69.5968 55.482 69.0693 55.4911 68.5154C55.5002 67.9615 55.2887 67.4267 54.9031 67.0286C54.5175 66.6306 53.9894 66.4018 53.4349 66.3927C53.4121 66.3923 53.3892 66.3923 53.3663 66.3927H44.1952Z" fill="#3F3D56"/>
<path d="M44.1952 90.276C43.6467 90.285 43.1237 90.509 42.739 90.8997C42.3543 91.2903 42.1387 91.8164 42.1387 92.3644C42.1387 92.9125 42.3543 93.4385 42.739 93.8292C43.1237 94.2199 43.6467 94.4438 44.1952 94.4528H53.3663C53.9207 94.4619 54.4561 94.2506 54.8545 93.8654C55.253 93.4802 55.482 92.9526 55.4911 92.3987C55.5002 91.8449 55.2887 91.3101 54.9031 90.912C54.5175 90.5139 53.9894 90.2851 53.4349 90.276C53.4121 90.2757 53.3892 90.2757 53.3663 90.276H44.1952Z" fill="#3F3D56"/>
<path d="M40.5577 49.4161C40.0092 49.4251 39.4862 49.6491 39.1015 50.0397C38.7168 50.4304 38.5012 50.9565 38.5012 51.5045C38.5012 52.0525 38.7168 52.5786 39.1015 52.9692C39.4862 53.3599 40.0092 53.5839 40.5577 53.5929H92.9727C93.5272 53.602 94.0625 53.3907 94.461 53.0055C94.8595 52.6202 95.0885 52.0927 95.0976 51.5388C95.1067 50.9849 94.8951 50.4501 94.5095 50.052C94.1239 49.6539 93.5958 49.4252 93.0414 49.4161C93.0185 49.4157 92.9956 49.4157 92.9727 49.4161H40.5577Z" fill="#CCCCCC"/>
<path d="M95.9261 20.8332H57.4288V21.5356H95.9261C97.8214 21.5356 99.6391 22.2878 100.979 23.6267C102.32 24.9655 103.072 26.7814 103.072 28.6749C103.072 30.5683 102.32 32.3842 100.979 33.7231C99.6391 35.0619 97.8214 35.8141 95.9261 35.8141H37.673C35.7786 35.8128 33.9622 35.06 32.6231 33.7213C31.284 32.3826 30.5318 30.5674 30.5318 28.6749C30.5318 26.7823 31.284 24.9672 32.6231 23.6285C33.9622 22.2898 35.7786 21.537 37.673 21.5356H39.8499V20.8332H37.673C35.5921 20.8346 33.5969 21.6614 32.126 23.1319C30.6551 24.6023 29.8289 26.5961 29.8289 28.6749C29.8289 30.7537 30.6551 32.7474 32.126 34.2179C33.5969 35.6883 35.5921 36.5151 37.673 36.5166H95.9261C98.007 36.5151 100.002 35.6883 101.473 34.2179C102.944 32.7474 103.77 30.7537 103.77 28.6749C103.77 26.5961 102.944 24.6023 101.473 23.1319C100.002 21.6614 98.007 20.8346 95.9261 20.8332Z" fill="#CCCCCC"/>
<path d="M44.1952 18.9773C43.6467 18.9863 43.1237 19.2103 42.739 19.6009C42.3543 19.9916 42.1387 20.5177 42.1387 21.0657C42.1387 21.6137 42.3543 22.1398 42.739 22.5305C43.1237 22.9211 43.6467 23.1451 44.1952 23.1541H53.3663C53.9207 23.1632 54.4561 22.9519 54.8545 22.5667C55.253 22.1815 55.482 21.6539 55.4911 21.1C55.5002 20.5461 55.2887 20.0113 54.9031 19.6132C54.5175 19.2152 53.9894 18.9864 53.4349 18.9773C53.4121 18.9769 53.3892 18.9769 53.3663 18.9773H44.1952Z" fill="#3F3D56"/>
<path d="M40.5576 26.5864C40.0091 26.5954 39.4862 26.8194 39.1015 27.21C38.7168 27.6007 38.5012 28.1268 38.5012 28.6748C38.5012 29.2228 38.7168 29.7488 39.1015 30.1395C39.4862 30.5302 40.0091 30.7542 40.5576 30.7632H92.9726C93.2473 30.7679 93.5202 30.7186 93.7758 30.6179C94.0314 30.5172 94.2646 30.3672 94.4621 30.1764C94.6596 29.9857 94.8176 29.7579 94.9269 29.5061C95.0363 29.2543 95.0949 28.9835 95.0994 28.7091C95.1039 28.4347 95.0542 28.1621 94.9532 27.9068C94.8522 27.6516 94.7018 27.4188 94.5107 27.2216C94.3195 27.0245 94.0914 26.8669 93.8393 26.7579C93.5871 26.6489 93.316 26.5906 93.0413 26.5864C93.0184 26.586 92.9955 26.586 92.9726 26.5864H40.5576Z" fill="#CCCCCC"/>
<path d="M40.5577 73.6507C40.0092 73.6597 39.4862 73.8836 39.1015 74.2743C38.7168 74.665 38.5012 75.1911 38.5012 75.7391C38.5012 76.2871 38.7168 76.8132 39.1015 77.2038C39.4862 77.5945 40.0092 77.8185 40.5577 77.8275H92.9727C93.2473 77.832 93.52 77.7824 93.7754 77.6816C94.0307 77.5808 94.2637 77.4308 94.461 77.24C94.6583 77.0493 94.8161 76.8216 94.9253 76.57C95.0345 76.3183 95.093 76.0476 95.0976 75.7734C95.1021 75.4991 95.0525 75.2267 94.9516 74.9716C94.8507 74.7165 94.7005 74.4837 94.5095 74.2866C94.3186 74.0895 94.0907 73.9319 93.8388 73.8228C93.5869 73.7137 93.3159 73.6552 93.0414 73.6507C93.0185 73.6503 92.9956 73.6503 92.9727 73.6507H40.5577Z" fill="#1976D3"/>
<path d="M40.5577 97.8851C40.0092 97.8941 39.4862 98.1181 39.1015 98.5087C38.7168 98.8994 38.5012 99.4255 38.5012 99.9735C38.5012 100.522 38.7168 101.048 39.1015 101.438C39.4862 101.829 40.0092 102.053 40.5577 102.062H92.9727C93.2473 102.066 93.52 102.017 93.7754 101.916C94.0307 101.815 94.2637 101.665 94.461 101.474C94.6583 101.284 94.8161 101.056 94.9253 100.804C95.0345 100.553 95.093 100.282 95.0976 100.008C95.1021 99.7335 95.0525 99.4611 94.9516 99.206C94.8507 98.9509 94.7005 98.7181 94.5095 98.521C94.3186 98.3239 94.0907 98.1663 93.8388 98.0572C93.5869 97.9481 93.3159 97.8896 93.0414 97.8851C93.0185 97.8847 92.9956 97.8847 92.9727 97.8851H40.5577Z" fill="#CCCCCC"/>
<path d="M119.396 75.9016L111.486 71.3391V80.4642L119.396 75.9016L111.486 71.3391V80.4642L119.396 75.9016Z" fill="#1976D3"/>
<path d="M126.252 125.739H2.63682C2.21737 125.738 1.81522 125.572 1.51862 125.275C1.22202 124.979 1.05519 124.577 1.05473 124.158V2.63419C1.05519 2.21515 1.22202 1.81341 1.51862 1.5171C1.81522 1.2208 2.21737 1.05413 2.63682 1.05367H130.962C131.382 1.05413 131.784 1.2208 132.08 1.5171C132.377 1.81341 132.544 2.21515 132.544 2.63419V74.5846H133.599V2.63419C133.598 1.93579 133.32 1.26622 132.826 0.77238C132.332 0.278539 131.661 0.000763045 130.962 0H2.63682C1.93773 0.000763045 1.26749 0.278539 0.773152 0.77238C0.278818 1.26622 0.000763808 1.93579 0 2.63419V124.158C0.000763808 124.857 0.278818 125.526 0.773152 126.02C1.26749 126.514 1.93773 126.792 2.63682 126.792H126.252V125.739Z" fill="#CCCCCC"/>
<path d="M239.667 72.8286H128.857C127.419 72.8286 126.252 73.7383 126.252 74.8592V98.8193H242.272V74.8592C242.272 73.7383 241.105 72.8286 239.667 72.8286Z" fill="#1976D3"/>
<path d="M240.339 72.1261H128.186C127.486 72.1264 126.816 72.404 126.321 72.8979C125.827 73.3919 125.549 74.0618 125.549 74.7603V164.323C125.549 165.021 125.827 165.691 126.321 166.185C126.816 166.679 127.486 166.957 128.186 166.957H240.339C241.038 166.957 241.708 166.679 242.203 166.185C242.697 165.691 242.975 165.021 242.975 164.323V74.7603C242.975 74.0618 242.697 73.3919 242.203 72.8979C241.708 72.404 241.038 72.1264 240.339 72.1261ZM241.921 164.323C241.92 164.742 241.753 165.143 241.457 165.44C241.16 165.736 240.758 165.903 240.339 165.903H128.186C127.766 165.903 127.364 165.736 127.068 165.44C126.771 165.143 126.604 164.742 126.604 164.323V74.7603C126.604 74.3413 126.771 73.9397 127.068 73.6434C127.364 73.3472 127.766 73.1804 128.186 73.1798H240.339C240.758 73.1804 241.16 73.3472 241.457 73.6434C241.753 73.9397 241.92 74.3413 241.921 74.7603V164.323Z" fill="#CCCCCC"/>
<path d="M213.389 111.925H174.891V112.628H213.389C215.284 112.628 217.102 113.38 218.442 114.719C219.782 116.058 220.535 117.874 220.535 119.767C220.535 121.661 219.782 123.476 218.442 124.815C217.102 126.154 215.284 126.906 213.389 126.906H155.136C153.24 126.906 151.423 126.154 150.082 124.815C148.742 123.476 147.989 121.661 147.989 119.767C147.989 117.874 148.742 116.058 150.082 114.719C151.423 113.38 153.24 112.628 155.136 112.628H157.313V111.925H155.136C153.054 111.925 151.057 112.752 149.585 114.222C148.113 115.693 147.286 117.687 147.286 119.767C147.286 121.847 148.113 123.841 149.585 125.312C151.057 126.783 153.054 127.609 155.136 127.609H213.389C215.471 127.609 217.467 126.783 218.939 125.312C220.411 123.841 221.238 121.847 221.238 119.767C221.238 117.687 220.411 115.693 218.939 114.222C217.467 112.752 215.471 111.925 213.389 111.925Z" fill="#CCCCCC"/>
<path d="M213.389 136.16H174.891V136.862H213.389C215.284 136.862 217.102 137.614 218.442 138.953C219.782 140.292 220.535 142.108 220.535 144.001C220.535 145.895 219.782 147.711 218.442 149.05C217.102 150.389 215.284 151.141 213.389 151.141H155.136C153.24 151.141 151.423 150.389 150.082 149.05C148.742 147.711 147.989 145.895 147.989 144.001C147.989 142.108 148.742 140.292 150.082 138.953C151.423 137.614 153.24 136.862 155.136 136.862H157.313V136.16H155.136C153.054 136.16 151.057 136.986 149.585 138.457C148.113 139.927 147.286 141.922 147.286 144.001C147.286 146.081 148.113 148.076 149.585 149.546C151.057 151.017 153.054 151.843 155.136 151.843H213.389C215.471 151.843 217.467 151.017 218.939 149.546C220.411 148.076 221.238 146.081 221.238 144.001C221.238 141.922 220.411 139.927 218.939 138.457C217.467 136.986 215.471 136.16 213.389 136.16Z" fill="#CCCCCC"/>
<path d="M161.658 110.421C161.109 110.43 160.586 110.654 160.202 111.044C159.817 111.435 159.601 111.961 159.601 112.509C159.601 113.057 159.817 113.583 160.202 113.974C160.586 114.365 161.109 114.589 161.658 114.598H170.829C171.383 114.607 171.919 114.395 172.317 114.01C172.716 113.625 172.945 113.097 172.954 112.544C172.963 111.99 172.751 111.455 172.366 111.057C171.98 110.659 171.452 110.43 170.898 110.421C170.875 110.42 170.852 110.42 170.829 110.421H161.658Z" fill="#3F3D56"/>
<path d="M161.658 134.304C161.109 134.313 160.586 134.537 160.202 134.928C159.817 135.318 159.601 135.844 159.601 136.392C159.601 136.941 159.817 137.467 160.202 137.857C160.586 138.248 161.109 138.472 161.658 138.481H170.829C171.383 138.49 171.919 138.279 172.317 137.893C172.716 137.508 172.945 136.981 172.954 136.427C172.963 135.873 172.751 135.338 172.366 134.94C171.98 134.542 171.452 134.313 170.898 134.304C170.875 134.304 170.852 134.304 170.829 134.304H161.658Z" fill="#3F3D56"/>
<path d="M158.02 117.679C157.472 117.688 156.949 117.912 156.564 118.302C156.179 118.693 155.964 119.219 155.964 119.767C155.964 120.315 156.179 120.841 156.564 121.232C156.949 121.622 157.472 121.846 158.02 121.855H210.435C210.71 121.86 210.983 121.81 211.238 121.71C211.493 121.609 211.726 121.459 211.924 121.268C212.121 121.077 212.279 120.849 212.388 120.598C212.497 120.346 212.556 120.076 212.56 119.801C212.565 119.527 212.515 119.255 212.414 118.999C212.313 118.744 212.163 118.512 211.972 118.315C211.781 118.117 211.553 117.96 211.301 117.851C211.05 117.742 210.779 117.683 210.504 117.679C210.481 117.678 210.458 117.678 210.435 117.679H158.02Z" fill="#CCCCCC"/>
<path d="M158.02 141.913C157.472 141.922 156.949 142.146 156.564 142.537C156.179 142.927 155.964 143.454 155.964 144.002C155.964 144.55 156.179 145.076 156.564 145.466C156.949 145.857 157.472 146.081 158.02 146.09H210.435C210.71 146.094 210.983 146.045 211.238 145.944C211.493 145.843 211.726 145.693 211.924 145.503C212.121 145.312 212.279 145.084 212.388 144.832C212.497 144.581 212.556 144.31 212.56 144.036C212.565 143.762 212.515 143.489 212.414 143.234C212.313 142.979 212.163 142.746 211.972 142.549C211.781 142.352 211.553 142.194 211.301 142.085C211.05 141.976 210.779 141.918 210.504 141.913C210.481 141.913 210.458 141.913 210.435 141.913H158.02Z" fill="#CCCCCC"/>
<path d="M141.692 93.3793C145.869 93.3793 149.255 89.9966 149.255 85.8238C149.255 81.651 145.869 78.2683 141.692 78.2683C137.515 78.2683 134.129 81.651 134.129 85.8238C134.129 89.9966 137.515 93.3793 141.692 93.3793Z" fill="white"/>
<path d="M155.257 79.8595C154.765 79.8675 154.296 80.0683 153.951 80.4185C153.607 80.7686 153.413 81.2402 153.413 81.7314C153.413 82.2226 153.607 82.6941 153.951 83.0443C154.296 83.3945 154.765 83.5952 155.257 83.6033H202.238C202.484 83.6073 202.728 83.5629 202.957 83.4726C203.186 83.3822 203.395 83.2477 203.572 83.0767C203.749 82.9058 203.89 82.7017 203.988 82.4761C204.086 82.2506 204.138 82.0079 204.142 81.7621C204.146 81.5163 204.102 81.2721 204.011 81.0434C203.921 80.8148 203.786 80.6062 203.615 80.4295C203.444 80.2528 203.24 80.1115 203.014 80.0137C202.788 79.9159 202.545 79.8635 202.299 79.8595C202.279 79.8591 202.258 79.8591 202.238 79.8595H155.257Z" fill="white"/>
<path d="M155.257 88.0445C154.765 88.0526 154.296 88.2533 153.951 88.6035C153.607 88.9537 153.413 89.4252 153.413 89.9164C153.413 90.4076 153.607 90.8792 153.951 91.2293C154.296 91.5795 154.765 91.7803 155.257 91.7883H232.49C232.987 91.7965 233.467 91.6071 233.824 91.2618C234.181 90.9165 234.387 90.4436 234.395 89.9472C234.403 89.4507 234.213 88.9713 233.868 88.6145C233.522 88.2577 233.049 88.0527 232.552 88.0445C232.531 88.0442 232.511 88.0442 232.49 88.0445H155.257Z" fill="white"/>
<path d="M304.026 95.3681L288.557 97.1242C288.768 92.3773 288.366 87.9496 286.799 84.1289L299.456 79.563C298.321 84.2899 300.451 89.6818 304.026 95.3681Z" fill="#A0616A"/>
<path d="M305.892 148.082L310.902 157.018C311.201 157.55 311.391 158.135 311.463 158.741C311.535 159.346 311.487 159.96 311.321 160.547C311.155 161.134 310.876 161.682 310.498 162.161C310.12 162.64 309.651 163.04 309.119 163.338C309.099 163.349 309.079 163.36 309.059 163.371C308.384 163.736 307.629 163.928 306.861 163.93C306.094 163.933 305.337 163.745 304.66 163.384C303.983 163.023 303.406 162.5 302.98 161.862C302.554 161.224 302.293 160.491 302.221 159.728L301.406 151.188L298.63 118.591L293.895 97.1498L303.726 94.3615L308.302 118.472L305.892 148.082Z" fill="#A0616A"/>
<path d="M314.222 243.234L307.893 242.883L293.83 180.365L263.946 243.234L257.618 242.883L275.9 145.945L276.251 128.383L299.104 126.978C307.645 136.362 312.482 146.066 313.167 156.13L314.222 243.234Z" fill="#2F2E41"/>
<path d="M263.433 254.211C262.235 254.757 261.083 250.201 260.221 251.324C257.326 255.096 250.585 253.913 250.615 253.477C250.169 253.334 249.798 253.019 249.584 252.603C249.37 252.186 249.33 251.702 249.473 251.257C249.482 251.23 249.491 251.203 249.501 251.177C249.602 250.909 249.766 250.67 249.979 250.48C250.193 250.289 250.449 250.154 250.727 250.084L253.733 249.334L258.452 241.042L263.27 240.717C264.344 242.085 265.094 243.678 265.463 245.377C265.831 247.077 265.81 248.837 265.399 250.527C264.962 252.309 264.287 253.822 263.433 254.211Z" fill="#2F2E41"/>
<path d="M313.385 254.211C312.187 254.757 311.036 250.201 310.174 251.324C306.838 255.667 300.343 254.168 300.567 253.477C300.346 253.406 300.142 253.292 299.965 253.142C299.788 252.992 299.642 252.809 299.536 252.603C299.43 252.397 299.366 252.172 299.347 251.941C299.328 251.71 299.355 251.477 299.426 251.256C299.434 251.23 299.444 251.203 299.454 251.177C299.554 250.909 299.718 250.67 299.932 250.48C300.145 250.289 300.402 250.154 300.679 250.084L303.685 249.334L308.405 241.042L313.548 240.392L313.678 240.604C314.672 242.205 315.313 243.999 315.558 245.867C315.804 247.736 315.647 249.634 315.099 251.437C314.671 252.806 314.089 253.89 313.385 254.211Z" fill="#2F2E41"/>
<path d="M289.963 87.29C295.982 87.29 300.862 82.4153 300.862 76.402C300.862 70.3888 295.982 65.514 289.963 65.514C283.944 65.514 279.064 70.3888 279.064 76.402C279.064 82.4153 283.944 87.29 289.963 87.29Z" fill="#A0616A"/>
<path d="M299.807 128.735L276.251 130.139L274.142 116.793C271.958 110.793 274.688 105.282 279.064 99.9341L288.205 89.7486L300.862 89.3973C302.565 89.9563 304.075 90.9877 305.214 92.3713C306.353 93.7548 307.074 95.4335 307.294 97.2113C308.206 104.678 306.842 112.246 303.381 118.926L299.807 128.735Z" fill="#E6E6E6"/>
<path d="M274.142 158.589L275.828 168.692C275.928 169.293 275.909 169.909 275.771 170.503C275.633 171.097 275.38 171.658 275.025 172.154C274.67 172.65 274.221 173.072 273.703 173.395C273.186 173.717 272.609 173.935 272.007 174.035C271.985 174.039 271.962 174.043 271.939 174.046C271.18 174.161 270.405 174.086 269.682 173.829C268.959 173.571 268.311 173.139 267.796 172.57C267.281 172.002 266.915 171.314 266.731 170.57C266.547 169.826 266.55 169.047 266.74 168.305L268.868 159.994L277.306 128.383L280.119 106.607L290.315 107.31L286.447 131.544L274.142 158.589Z" fill="#A0616A"/>
<path d="M303.033 118.373H302.781C298.027 114.258 293.895 109.645 297.232 103.869C294.402 96.6946 291.248 89.244 291.438 84.6347C291.638 81.2267 290.54 77.8693 288.365 75.2368C285.358 71.728 284.689 70.161 279.197 71.4879C279.159 68.7312 280.218 66.0721 282.142 64.0958C284.066 62.1194 286.698 60.9876 289.457 60.9493C289.631 60.9469 289.806 60.9488 289.98 60.9551L293.411 61.0798C296.035 61.1751 304.423 62.247 306.224 63.9772C307.137 64.8839 307.828 65.9892 308.243 67.2067C308.658 68.4242 308.786 69.721 308.616 70.9959C308.28 73.8567 309.183 76.3826 311.597 78.5007C316.218 83.2746 318.124 88.228 315.504 93.4807C313.526 99.0414 313.621 103.618 318.722 105.819C320.379 112.171 309.604 118.373 303.033 118.373Z" fill="#2F2E41"/>
<path d="M291.369 110.822C287.005 107.487 282.668 107.223 278.361 110.471L279.537 97.1337C279.504 95.2488 280.208 93.4253 281.498 92.0498C282.789 90.6743 284.565 89.8549 286.45 89.7652C287.402 89.7199 288.354 89.8624 289.251 90.1846C290.148 90.5068 290.972 91.0023 291.678 91.6429C292.383 92.2835 292.955 93.0566 293.362 93.9181C293.768 94.7796 294 95.7125 294.046 96.6638C294.053 96.8189 294.055 96.9742 294.053 97.1295L291.369 110.822Z" fill="#E6E6E6"/>
<path d="M290.139 81.1436C290.915 81.1436 291.545 79.9642 291.545 78.5094C291.545 77.0546 290.915 75.8752 290.139 75.8752C289.362 75.8752 288.732 77.0546 288.732 78.5094C288.732 79.9642 289.362 81.1436 290.139 81.1436Z" fill="#A0616A"/>
</g>
<defs>
<clipPath id="clip0">
<rect width="338" height="256" fill="white"/>
</clipPath>
</defs>
</svg>
