<svg width="257" height="255" viewBox="0 0 257 255" fill="none" xmlns="http://www.w3.org/2000/svg">
<g clip-path="url(#clip0)">
<path d="M169.519 67.5586H127.336C126.413 67.5614 125.501 67.3541 124.67 66.9526C123.839 66.551 123.111 65.9658 122.541 65.2414C121.96 64.5102 121.555 63.6566 121.356 62.7456C121.156 61.8346 121.168 60.8902 121.389 59.9843C125.277 43.7492 125.277 26.8296 121.389 10.5945C121.168 9.68867 121.156 8.74436 121.356 7.83343C121.555 6.9225 121.96 6.06895 122.541 5.33772C123.111 4.61328 123.839 4.02802 124.67 3.62648C125.501 3.22495 126.413 3.0177 127.336 3.02054H169.519C170.975 3.02471 172.383 3.54417 173.491 4.48638C174.599 5.4286 175.336 6.7324 175.57 8.16556C178.346 26.1423 178.346 44.4368 175.57 62.4135C175.336 63.8467 174.599 65.1505 173.491 66.0927C172.383 67.0349 170.975 67.5544 169.519 67.5586Z" fill="#E6E6E6"/>
<path d="M127.336 6.18556C126.893 6.18408 126.455 6.28346 126.056 6.47615C125.657 6.66884 125.307 6.94976 125.033 7.29754C124.751 7.65387 124.554 8.06964 124.458 8.51321C124.361 8.95677 124.367 9.41647 124.476 9.85731C128.48 26.5775 128.48 44.0027 124.476 60.723C124.367 61.1637 124.361 61.6233 124.458 62.0668C124.554 62.5103 124.751 62.926 125.033 63.2822L125.033 63.2825C125.307 63.6303 125.657 63.9113 126.056 64.1041C126.455 64.2968 126.893 64.3962 127.336 64.3947H169.519C170.218 64.395 170.895 64.1477 171.429 63.6969C171.962 63.2462 172.318 62.6212 172.433 61.9333C175.16 44.2752 175.16 26.305 172.433 8.64695C172.318 7.95906 171.962 7.3341 171.429 6.88335C170.895 6.4326 170.218 6.18532 169.519 6.18556L127.336 6.18556Z" fill="white"/>
<path d="M160.314 21.4011H138.178C137.337 21.4002 136.53 21.0665 135.935 20.4733C135.34 19.8801 135.005 19.0758 135.004 18.2368V17.0002C135.005 16.1613 135.34 15.357 135.935 14.7638C136.53 14.1705 137.337 13.8369 138.178 13.8359H160.314C161.155 13.8369 161.962 14.1705 162.557 14.7638C163.152 15.357 163.487 16.1613 163.487 17.0002V18.2368C163.487 19.0758 163.152 19.8801 162.557 20.4733C161.962 21.0665 161.155 21.4002 160.314 21.4011Z" fill="#E6E6E6"/>
<path d="M160.314 37.0261H138.178C137.337 37.0252 136.53 36.6915 135.935 36.0983C135.34 35.5051 135.005 34.7008 135.004 33.8618V32.6252C135.005 31.7863 135.34 30.982 135.935 30.3887C136.53 29.7955 137.337 29.4619 138.178 29.4609H160.314C161.155 29.4619 161.962 29.7955 162.557 30.3887C163.152 30.982 163.487 31.7863 163.487 32.6252V33.8618C163.487 34.7008 163.152 35.5051 162.557 36.0983C161.962 36.6915 161.155 37.0252 160.314 37.0261Z" fill="#E6E6E6"/>
<path d="M160.314 52.6511H138.178C137.337 52.6502 136.53 52.3165 135.935 51.7233C135.34 51.1301 135.005 50.3257 135.004 49.4868V48.2502C135.005 47.4113 135.34 46.607 135.935 46.0137C136.53 45.4205 137.337 45.0869 138.178 45.0859H160.314C161.155 45.0869 161.962 45.4205 162.557 46.0137C163.152 46.607 163.487 47.4113 163.487 48.2502V49.4868C163.487 50.3257 163.152 51.1301 162.557 51.7233C161.962 52.3165 161.155 52.6502 160.314 52.6511Z" fill="#E6E6E6"/>
<path d="M248.867 107.642H206.685C205.761 107.644 204.849 107.437 204.018 107.036C203.187 106.634 202.459 106.049 201.889 105.324C201.309 104.593 200.903 103.74 200.704 102.829C200.504 101.918 200.516 100.973 200.738 100.067C204.625 83.8322 204.625 66.9126 200.737 50.6775C200.516 49.7717 200.504 48.8274 200.704 47.9164C200.903 47.0055 201.309 46.152 201.889 45.4207C202.459 44.6963 203.187 44.111 204.018 43.7095C204.849 43.308 205.761 43.1007 206.685 43.1035H248.867C250.323 43.1077 251.731 43.6272 252.839 44.5694C253.947 45.5116 254.684 46.8154 254.918 48.2486C257.694 66.2253 257.694 84.5198 254.918 102.497C254.684 103.93 253.947 105.234 252.839 106.176C251.731 107.118 250.323 107.637 248.867 107.642Z" fill="#E6E6E6"/>
<path d="M206.685 46.2686C206.241 46.2671 205.803 46.3665 205.404 46.5592C205.005 46.7518 204.655 47.0328 204.381 47.3805C204.099 47.7369 203.902 48.1526 203.806 48.5962C203.709 49.0398 203.715 49.4995 203.824 49.9403C207.828 66.6606 207.828 84.0857 203.824 100.806C203.715 101.247 203.709 101.706 203.806 102.15C203.902 102.593 204.099 103.009 204.381 103.365L204.381 103.366C204.655 103.713 205.005 103.994 205.404 104.187C205.803 104.38 206.241 104.479 206.685 104.478H248.867C249.566 104.478 250.243 104.231 250.777 103.78C251.31 103.329 251.666 102.704 251.781 102.016C254.508 84.3582 254.508 66.3881 251.781 48.73C251.666 48.0421 251.31 47.4171 250.777 46.9664C250.243 46.5156 249.566 46.2683 248.867 46.2686L206.685 46.2686Z" fill="white"/>
<path d="M164.758 153.262H122.576C121.612 153.265 120.661 153.048 119.794 152.629C118.927 152.21 118.167 151.6 117.572 150.844C116.967 150.082 116.544 149.192 116.336 148.242C116.128 147.292 116.14 146.307 116.371 145.362C120.249 129.168 120.249 112.29 116.371 96.0956C116.14 95.151 116.128 94.1663 116.336 93.2164C116.544 92.2665 116.967 91.3764 117.572 90.6139C118.167 89.8582 118.927 89.2476 119.794 88.8286C120.661 88.4097 121.612 88.1934 122.576 88.1963H164.758C166.277 88.2008 167.746 88.743 168.902 89.7261C170.058 90.7093 170.826 92.0696 171.07 93.5649C173.851 111.568 173.851 129.89 171.07 147.893C170.826 149.388 170.058 150.749 168.902 151.732C167.746 152.715 166.277 153.257 164.758 153.262Z" fill="#F2F2F2"/>
<path d="M239.662 69.3952H217.526C216.685 69.3943 215.878 69.0607 215.283 68.4674C214.688 67.8742 214.353 67.0699 214.352 66.2309V64.9944C214.353 64.1554 214.688 63.3511 215.283 62.7579C215.878 62.1647 216.685 61.831 217.526 61.8301H239.662C240.503 61.831 241.31 62.1647 241.905 62.7579C242.5 63.3511 242.835 64.1554 242.835 64.9944V66.231C242.835 67.0699 242.5 67.8742 241.905 68.4674C241.31 69.0607 240.503 69.3943 239.662 69.3952Z" fill="#E6E6E6"/>
<path d="M239.662 85.0202H217.526C216.685 85.0193 215.878 84.6856 215.283 84.0924C214.688 83.4992 214.353 82.6949 214.352 81.8559V80.6194C214.353 79.7804 214.688 78.9761 215.283 78.3829C215.878 77.7897 216.685 77.456 217.526 77.4551H239.662C240.503 77.456 241.31 77.7897 241.905 78.3829C242.5 78.9761 242.835 79.7804 242.835 80.6194V81.8559C242.835 82.6949 242.5 83.4992 241.905 84.0924C241.31 84.6856 240.503 85.0193 239.662 85.0202Z" fill="#E6E6E6"/>
<path d="M143.785 132.642C150.504 132.642 155.951 127.212 155.951 120.512C155.951 113.813 150.504 108.382 143.785 108.382C137.065 108.382 131.618 113.813 131.618 120.512C131.618 127.212 137.065 132.642 143.785 132.642Z" fill="white"/>
<path d="M149.604 118.929H145.372V114.71C145.372 114.291 145.204 113.888 144.907 113.591C144.609 113.295 144.206 113.128 143.785 113.128C143.364 113.128 142.96 113.295 142.663 113.591C142.365 113.888 142.198 114.291 142.198 114.71V118.929H137.966C137.545 118.929 137.141 119.096 136.844 119.393C136.546 119.69 136.379 120.092 136.379 120.512C136.379 120.931 136.546 121.334 136.844 121.63C137.141 121.927 137.545 122.094 137.966 122.094H142.198V126.313C142.198 126.733 142.365 127.135 142.663 127.432C142.96 127.729 143.364 127.895 143.785 127.895C144.206 127.895 144.609 127.729 144.907 127.432C145.204 127.135 145.372 126.733 145.372 126.313V122.094H149.604C150.024 122.094 150.428 121.927 150.726 121.63C151.023 121.334 151.191 120.931 151.191 120.512C151.191 120.092 151.023 119.69 150.726 119.393C150.428 119.096 150.024 118.929 149.604 118.929Z" fill="#E6E6E6"/>
<path d="M159.125 8.96587H136.908C136.277 8.96516 135.672 8.71489 135.225 8.26996C134.779 7.82503 134.528 7.22178 134.527 6.59255V2.37332C134.528 1.74409 134.779 1.14084 135.225 0.695912C135.672 0.250982 136.277 0.000709126 136.908 0H159.125C159.756 0.000709126 160.361 0.250982 160.808 0.695912C161.254 1.14084 161.505 1.74409 161.506 2.37332V6.59255C161.505 7.22178 161.254 7.82503 160.808 8.26996C160.361 8.71489 159.756 8.96516 159.125 8.96587Z" fill="#CCCCCC"/>
<path d="M239.531 49.5762H217.314C216.683 49.5755 216.078 49.3252 215.631 48.8803C215.185 48.4354 214.934 47.8321 214.933 47.2029V42.9837C214.934 42.3544 215.185 41.7512 215.631 41.3063C216.078 40.8613 216.683 40.6111 217.314 40.6104H239.531C240.162 40.6111 240.768 40.8613 241.214 41.3063C241.66 41.7512 241.911 42.3544 241.912 42.9837V47.2029C241.911 47.8321 241.66 48.4354 241.214 48.8803C240.768 49.3252 240.162 49.5755 239.531 49.5762Z" fill="#CCCCCC"/>
<path d="M46.8662 248.44H53.3516L55.3792 223.5H46.8651L46.8662 248.44Z" fill="#FFB8B8"/>
<path d="M45.2122 246.329L57.9839 246.328H57.9845C59.0533 246.328 60.1117 246.538 61.0992 246.946C62.0867 247.354 62.984 247.951 63.7398 248.705C64.4956 249.458 65.0951 250.353 65.5042 251.337C65.9132 252.322 66.1237 253.377 66.1237 254.443V254.707L45.2126 254.707L45.2122 246.329Z" fill="#2F2E41"/>
<path d="M11.953 248.44H18.4384L21.5239 223.5H11.9519L11.953 248.44Z" fill="#FFB8B8"/>
<path d="M10.299 246.329L23.0707 246.328H23.0712C24.1401 246.328 25.1985 246.538 26.186 246.946C27.1735 247.354 28.0708 247.951 28.8266 248.705C29.5824 249.458 30.1819 250.353 30.591 251.337C31 252.322 31.2105 253.377 31.2105 254.443V254.707L10.2994 254.707L10.299 246.329Z" fill="#2F2E41"/>
<path d="M13.1037 240.561C12.4421 240.561 11.8048 240.313 11.3183 239.866C11.0572 239.628 10.8469 239.34 10.7 239.02C10.5531 238.699 10.4727 238.352 10.4636 238L7.86279 145.064L44.792 154.269L56.1862 188.348C57.6555 192.733 58.2915 197.352 58.0617 201.968L56.6469 235.003C56.6146 235.68 56.3221 236.318 55.8301 236.786C55.3381 237.253 54.6844 237.513 54.0049 237.513H47.811C47.1717 237.51 46.5547 237.278 46.0733 236.859C45.5919 236.439 45.2782 235.861 45.1899 235.229L40.7629 198.764C40.376 195.919 39.3779 193.191 37.8367 190.766L29.1245 177.014C29.0663 176.922 28.981 176.85 28.8803 176.808C28.7796 176.767 28.6685 176.757 28.5621 176.781C28.4557 176.804 28.3593 176.86 28.2859 176.941C28.2126 177.021 28.166 177.122 28.1524 177.23L21.3155 237.928C21.2421 238.544 20.9532 239.114 20.4997 239.538C20.0461 239.962 19.457 240.213 18.8361 240.247L13.2542 240.556C13.204 240.559 13.1539 240.561 13.1037 240.561Z" fill="#2F2E41"/>
<path d="M38.6465 84.8945C45.8221 84.8945 51.639 79.095 51.639 71.9409C51.639 64.7868 45.8221 58.9873 38.6465 58.9873C31.471 58.9873 25.6541 64.7868 25.6541 71.9409C25.6541 79.095 31.471 84.8945 38.6465 84.8945Z" fill="#FFB8B8"/>
<path d="M44.6152 158.048C44.3916 158.048 44.169 158.02 43.9524 157.965H43.952L7.31207 148.598C6.65699 148.431 6.09107 148.02 5.73068 147.449C5.37029 146.879 5.2428 146.192 5.37446 145.531L13.7891 100.337C14.3134 97.7247 15.4657 95.2782 17.1473 93.2077C18.8288 91.1371 20.9892 89.5044 23.443 88.4496C25.834 87.3946 28.4487 86.9426 31.0563 87.1335C33.664 87.3243 36.1844 88.1522 38.3952 89.5441C38.9082 89.8632 39.4249 90.2111 39.9306 90.5783C41.9666 92.0757 43.627 94.0231 44.7815 96.2677C45.936 98.5122 46.5532 100.993 46.5847 103.515L47.2538 155.374C47.2583 155.723 47.1934 156.069 47.063 156.393C46.9325 156.716 46.739 157.011 46.4937 157.26C46.2483 157.508 45.956 157.706 45.6336 157.841C45.3112 157.977 44.965 158.047 44.6152 158.048Z" fill="#1976D3"/>
<path d="M11.0819 158.58C10.6448 157.938 10.3541 157.209 10.2302 156.444C10.1063 155.679 10.1522 154.895 10.3647 154.149C10.5773 153.404 10.9512 152.713 11.4603 152.127C11.9693 151.541 12.6011 151.073 13.3111 150.757L11.6814 131.98L20.3176 136.647L20.5412 153.762C20.9952 154.987 20.983 156.335 20.5068 157.551C20.0307 158.767 19.1237 159.766 17.9577 160.36C16.7917 160.954 15.4478 161.1 14.1805 160.772C12.9133 160.444 11.8108 159.664 11.0819 158.58H11.0819Z" fill="#FFB8B8"/>
<path d="M14.1673 148.274C13.9236 148.274 13.6809 148.243 13.4448 148.183C12.9371 148.054 12.4738 147.79 12.1039 147.42C11.734 147.05 11.4714 146.587 11.3437 146.08L7.09956 129.265C5.61634 123.392 6.3234 117.181 9.0892 111.789L17.9809 94.4473C18.5429 92.371 19.901 90.5981 21.7622 89.511C23.6235 88.4239 25.8387 88.1096 27.9301 88.6361C28.9726 88.8985 29.9524 89.3647 30.8127 90.0075C31.6731 90.6504 32.3969 91.4571 32.9422 92.381C33.4987 93.318 33.8627 94.3561 34.0129 95.4348C34.1631 96.5135 34.0966 97.6112 33.8172 98.664L21.1598 126.883L21.3102 143.779C21.3141 144.375 21.1343 144.958 20.7952 145.449C20.4561 145.94 19.974 146.315 19.414 146.524L15.1782 148.092C14.8548 148.212 14.5124 148.274 14.1673 148.274Z" fill="#1976D3"/>
<path d="M74.7554 151.673C73.9828 151.585 73.2389 151.329 72.5762 150.924C71.9135 150.518 71.348 149.972 70.9197 149.325C70.4913 148.678 70.2105 147.945 70.097 147.178C69.9835 146.411 70.0401 145.629 70.2627 144.886L54.9255 133.869L64.1069 130.387L77.2637 141.383C78.4907 141.838 79.5074 142.727 80.1212 143.88C80.735 145.033 80.9032 146.37 80.594 147.639C80.2848 148.907 79.5197 150.018 78.4436 150.762C77.3675 151.506 76.0552 151.83 74.7554 151.673H74.7554Z" fill="#FFB8B8"/>
<path d="M66.7263 143.628C66.2741 143.628 65.8282 143.523 65.4236 143.321L49.8718 135.559C44.4398 132.849 40.1801 128.263 37.8846 122.656L30.5014 104.624C29.2898 102.845 28.828 100.662 29.2157 98.5462C29.6034 96.4305 30.8094 94.5515 32.5738 93.3142C33.4554 92.6962 34.4515 92.2593 35.5042 92.029C36.5568 91.7987 37.6449 91.7796 38.705 91.9728C39.7775 92.1651 40.8012 92.5676 41.7165 93.1572C42.6319 93.7468 43.4208 94.5116 44.0376 95.4073L57.2332 123.381L70.1753 134.289C70.6311 134.675 70.957 135.191 71.109 135.767C71.261 136.344 71.2318 136.953 71.0252 137.512L69.4543 141.736C69.2492 142.29 68.8787 142.768 68.3927 143.105C67.9041 143.445 67.3224 143.628 66.7263 143.628Z" fill="#1976D3"/>
<path d="M35.9183 85.0934C36.6087 85.3945 38.0223 79.9104 37.3891 78.8135C36.4473 77.1823 36.503 77.194 35.8778 76.1148C35.2527 75.0356 35.1128 73.5584 35.9224 72.6088C36.7319 71.6592 38.6054 71.7852 38.9748 72.9758C38.7372 70.7144 40.9807 68.8966 43.203 68.3857C45.4254 67.8749 47.7695 68.192 50.0041 67.7375C52.5974 67.2099 55.2956 65.0426 54.2609 62.1993C54.0834 61.726 53.8175 61.2904 53.4775 60.9156C52.282 59.5755 50.6097 59.0033 48.9747 58.45C45.5733 57.2989 42.0788 56.1334 38.4891 56.2605C35.5313 56.4147 32.6827 57.4252 30.292 59.1683C27.9013 60.9115 26.0721 63.3116 25.0283 66.0751C24.7809 66.7664 24.5892 67.4764 24.4551 68.1981C23.223 74.8034 27.0703 81.3188 33.319 83.8341L35.9183 85.0934Z" fill="#2F2E41"/>
<path opacity="0.2" d="M20.5776 144.162L20.8723 126.795L30.0994 108.299L22.6936 127.285L20.5776 144.162Z" fill="black"/>
<path d="M104.251 187.746L65.2976 171.61C64.4437 171.259 63.6814 170.719 63.0685 170.03C62.4556 169.342 62.0083 168.523 61.7607 167.636C61.5062 166.738 61.4604 165.795 61.6267 164.878C61.793 163.96 62.1672 163.092 62.7206 162.341C72.5586 148.835 79.0698 133.211 81.7273 116.731C81.8712 115.809 82.224 114.933 82.7589 114.168C83.2937 113.403 83.9964 112.77 84.8137 112.317C85.6188 111.866 86.5166 111.604 87.4385 111.551C88.3605 111.498 89.2824 111.656 90.1341 112.011L129.088 128.148C130.431 128.709 131.531 129.727 132.192 131.021C132.853 132.315 133.031 133.801 132.696 135.214C128.341 152.877 121.301 169.771 111.819 185.31C111.052 186.544 109.87 187.466 108.484 187.912C107.098 188.358 105.598 188.3 104.251 187.746Z" fill="#E6E6E6"/>
<path d="M88.9164 114.934C88.5074 114.763 88.0647 114.688 87.6219 114.713C87.1792 114.738 86.748 114.864 86.3613 115.08C85.9637 115.301 85.622 115.61 85.3621 115.983C85.1022 116.355 84.931 116.782 84.8614 117.231C82.1245 134.203 75.4187 150.294 65.2867 164.203C65.0169 164.569 64.8343 164.991 64.7527 165.437C64.6712 165.884 64.6929 166.343 64.8162 166.78L64.8163 166.78C64.9353 167.206 65.1502 167.599 65.4446 167.93C65.739 168.261 66.1053 168.52 66.5154 168.688L105.469 184.825C106.115 185.092 106.835 185.123 107.501 184.911C108.168 184.699 108.737 184.258 109.107 183.666C118.421 168.403 125.337 151.808 129.614 134.458C129.773 133.779 129.685 133.066 129.365 132.445C129.046 131.825 128.516 131.338 127.87 131.071L88.9164 114.934Z" fill="white"/>
<path d="M109.658 150.854L89.2163 142.386C88.4396 142.064 87.8231 141.447 87.5019 140.672C87.1807 139.896 87.1812 139.025 87.5032 138.25L87.9791 137.108C88.3028 136.334 88.9214 135.719 89.6991 135.399C90.4769 135.079 91.3503 135.079 92.1277 135.4L112.569 143.868C113.346 144.191 113.962 144.807 114.284 145.583C114.605 146.358 114.604 147.229 114.282 148.004L113.806 149.146C113.483 149.92 112.864 150.535 112.086 150.855C111.309 151.176 110.435 151.175 109.658 150.854Z" fill="#1976D3"/>
<path d="M103.645 165.283L83.2033 156.815C82.4266 156.492 81.81 155.876 81.4888 155.1C81.1677 154.325 81.1681 153.454 81.4901 152.679L81.966 151.537C82.2897 150.763 82.9083 150.148 83.6861 149.828C84.4638 149.508 85.3372 149.508 86.1146 149.829L106.556 158.297C107.333 158.619 107.949 159.236 108.27 160.012C108.592 160.787 108.591 161.658 108.269 162.433L107.793 163.575C107.47 164.349 106.851 164.964 106.073 165.284C105.295 165.604 104.422 165.604 103.645 165.283Z" fill="#1976D3"/>
<path d="M117.848 130.575C117.542 130.575 117.239 130.516 116.956 130.401L96.3582 122.098C95.7734 121.862 95.3066 121.404 95.0601 120.824C94.8136 120.245 94.8077 119.592 95.0435 119.009L96.6298 115.097C96.8665 114.513 97.326 114.047 97.9072 113.802C98.4884 113.556 99.1437 113.55 99.729 113.786L120.327 122.089C120.912 122.326 121.378 122.784 121.625 123.363C121.871 123.942 121.877 124.595 121.641 125.179L120.055 129.091C119.877 129.529 119.572 129.904 119.179 130.168C118.786 130.433 118.323 130.575 117.848 130.575Z" fill="#CCCCCC"/>
<path d="M74.5872 255H0.528988C0.388691 255 0.254149 254.945 0.154945 254.846C0.0557401 254.747 0 254.613 0 254.473C0 254.333 0.0557401 254.199 0.154945 254.1C0.254149 254.001 0.388691 253.945 0.528988 253.945H74.5872C74.7275 253.945 74.8621 254.001 74.9613 254.1C75.0605 254.199 75.1162 254.333 75.1162 254.473C75.1162 254.613 75.0605 254.747 74.9613 254.846C74.8621 254.945 74.7275 255 74.5872 255Z" fill="#CCCCCC"/>
</g>
<defs>
<clipPath id="clip0">
<rect width="257" height="255" fill="white"/>
</clipPath>
</defs>
</svg>
