<svg width="582" height="353" viewBox="0 0 582 353" fill="none" xmlns="http://www.w3.org/2000/svg">
<g clip-path="url(#clip0)">
<path d="M582 351.387H372.335V352.45H582V351.387Z" fill="#3F3D56"/>
<path d="M251.764 228.056V114.825H381.364V0H0V341.818H381.364V228.056H251.764Z" fill="#3F3D56"/>
<path opacity="0.1" d="M381.364 114.825V0H249.108V113.231H132.256V0H0V114.825H119.508V228.056H0V341.818H252.826V228.056H251.764V114.825H381.364Z" fill="black"/>
<path d="M91.3574 0C91.3569 24.2499 81.7316 47.5065 64.5989 64.6537C47.4661 81.801 24.2293 91.4345 0 91.435V0H91.3574Z" fill="#6C63FF"/>
<path opacity="0.1" d="M42.4918 0C42.4913 11.279 38.0144 22.0958 30.0457 30.0712C22.077 38.0466 11.2694 42.5274 0 42.5279V65.9183C17.4676 65.9177 34.2196 58.9725 46.571 46.6106C58.9225 34.2486 65.8617 17.4824 65.8623 0H42.4918Z" fill="black"/>
<path d="M381.364 31.8959V15.4164H293.725V0H274.603V15.4164V31.8959V44.6543V61.1339H293.725H381.364V44.6543H293.725V31.8959H381.364Z" fill="#D0CDE1"/>
<path d="M227.862 175.959C227.864 167.692 225.487 159.599 221.017 152.648C216.546 145.696 210.171 140.179 202.652 136.757C195.133 133.334 186.789 132.15 178.616 133.345C170.443 134.541 162.786 138.067 156.561 143.5C150.336 148.934 145.805 156.047 143.51 163.988C141.215 171.93 141.253 180.365 143.619 188.285C145.985 196.206 150.579 203.278 156.852 208.655C163.126 214.033 170.813 217.49 178.997 218.613V279.089H108.48C106.999 268.278 101.472 258.432 93.0157 251.543C84.5597 244.653 73.8054 241.235 62.9272 241.977C52.0489 242.72 41.8582 247.569 34.4152 255.544C26.9723 263.518 22.8323 274.024 22.8323 284.937C22.8323 295.85 26.9723 306.355 34.4152 314.33C41.8582 322.305 52.0489 327.154 62.9272 327.897C73.8054 328.639 84.5597 325.22 93.0157 318.331C101.472 311.442 106.999 301.596 108.48 290.785H178.997V316.301H190.682V290.785H214.584V279.089H190.682V218.613C200.983 217.2 210.424 212.101 217.259 204.26C224.094 196.418 227.861 186.365 227.862 175.959Z" fill="#D0CDE1"/>
<path d="M332.764 236.701L351.89 269.856L371.016 303.011H332.764H294.512L313.639 269.856L332.764 236.701Z" fill="#D0CDE1"/>
<path d="M324.266 307.264H286.014L305.14 274.109L305.273 273.879L298.24 261.687L279.114 294.841L259.988 327.997H298.24H336.491L324.531 307.264H324.266Z" fill="#6C63FF"/>
<path d="M84.4525 183.402V154.696H98.7935V137.685H27.6197V208.919H98.7935V183.402H84.4525Z" fill="#D0CDE1"/>
<path d="M73.8295 124.395H47.2722V150.974H73.8295V124.395Z" fill="#6C63FF"/>
<path d="M497.703 127.503L488.915 150.747L457.225 161.876C457.225 161.876 438.104 159.749 438.104 170.381C438.104 177.92 460.943 171.445 460.943 171.445L502.724 158.913L515.905 126.247L497.703 127.503Z" fill="#FFB8B8"/>
<path d="M461.567 121.204H337.279V228.587H461.567V121.204Z" fill="#6C63FF"/>
<path d="M397.033 153.771L416.159 186.926L435.285 220.082H397.033H358.781L377.907 186.926L397.033 153.771Z" fill="#3F3D56"/>
<path d="M396.943 177.774L405.619 192.815L414.295 207.855H396.943H379.591L388.267 192.815L396.943 177.774Z" fill="#D0CDE1"/>
<path d="M396.943 128.867L405.619 143.908L414.295 158.948H396.943H379.591L388.267 143.908L396.943 128.867Z" fill="#D0CDE1"/>
<path d="M516.288 112.4C516.288 112.4 507.501 111.144 503.107 127.477C498.714 143.81 497.458 145.067 497.458 145.067C497.458 145.067 523.193 148.836 523.82 147.579C524.448 146.323 529.469 116.169 516.288 112.4Z" fill="#2F2E41"/>
<path d="M511.267 106.118C520.627 106.118 528.214 98.5242 528.214 89.1567C528.214 79.7892 520.627 72.1953 511.267 72.1953C501.907 72.1953 494.32 79.7892 494.32 89.1567C494.32 98.5242 501.907 106.118 511.267 106.118Z" fill="#FFB8B8"/>
<path d="M503.735 102.977C503.735 102.977 509.384 117.425 507.501 119.31C505.618 121.195 530.725 123.707 530.725 123.707C530.725 123.707 532.608 114.284 525.076 108.631C525.076 108.631 521.937 99.2076 522.565 97.323C523.193 95.4384 503.735 102.977 503.735 102.977Z" fill="#FFB8B8"/>
<path d="M518.799 109.259C512.365 111.691 506.569 115.558 501.852 120.567C494.32 128.734 490.554 131.246 490.554 131.246C490.554 131.246 481.767 134.387 484.905 149.464C486.474 157.003 485.376 165.483 483.885 172.079C481.608 182.316 480.477 192.774 480.512 203.261V209.771C480.512 209.771 422.766 331.014 442.224 339.18C461.682 347.347 479.256 349.86 480.512 347.975C481.767 346.09 504.363 248.091 504.363 248.091C504.363 248.091 510.639 353.001 526.331 353.001C542.023 353.001 567.757 348.603 567.757 348.603L535.746 222.963C535.746 222.963 543.278 201.605 524.448 186.528L521.937 179.618C532.35 179.623 537.11 113.662 526.331 108.003C526.331 108.003 523.82 106.118 518.799 109.259Z" fill="#2F2E41"/>
<path d="M503.107 143.182L494.32 166.426L462.63 177.555C462.63 177.555 443.508 175.428 443.508 186.06C443.508 193.599 466.348 187.123 466.348 187.123L508.129 174.592L521.31 141.926L503.107 143.182Z" fill="#FFB8B8"/>
<path d="M461.368 353C467.434 353 472.352 350.187 472.352 346.718C472.352 343.248 467.434 340.436 461.368 340.436C455.301 340.436 450.384 343.248 450.384 346.718C450.384 350.187 455.301 353 461.368 353Z" fill="#2F2E41"/>
<path d="M545.475 353C551.541 353 556.459 350.187 556.459 346.718C556.459 343.248 551.541 340.436 545.475 340.436C539.408 340.436 534.491 343.248 534.491 346.718C534.491 350.187 539.408 353 545.475 353Z" fill="#2F2E41"/>
<path d="M517.809 65.3711H517.809C516.937 65.3728 516.066 65.4594 515.211 65.6297C513.664 64.8785 511.968 64.4872 510.25 64.4854H509.799C501.118 64.4854 494.08 72.3478 494.08 82.0465V82.0466H496.989L497.459 78.4677L498.148 82.0466H500.571C499.817 84.9182 499.439 87.8756 499.445 90.8447V108.719H503.843L506.39 102.096L505.753 108.719H534.022L536.337 102.699L535.759 108.719H538.941V94.6845C538.941 78.4952 529.48 65.3711 517.809 65.3711Z" fill="#2F2E41"/>
</g>
<defs>
<clipPath id="clip0">
<rect width="582" height="353" fill="white"/>
</clipPath>
</defs>
</svg>
