<svg width="397" height="251" viewBox="0 0 397 251" fill="none" xmlns="http://www.w3.org/2000/svg">
<g clip-path="url(#clip0)" filter="url(#filter0_d)">
<path d="M99.156 152.786H67.2528C65.4273 152.786 63.9474 154.268 63.9474 156.095V164.825C63.9474 166.652 65.4273 168.134 67.2528 168.134H99.156C100.982 168.134 102.461 166.652 102.461 164.825V156.095C102.461 154.268 100.982 152.786 99.156 152.786Z" fill="#6C63FF"/>
<path d="M137.67 152.786H105.767C103.941 152.786 102.461 154.268 102.461 156.095V164.825C102.461 166.652 103.941 168.134 105.767 168.134H137.67C139.496 168.134 140.976 166.652 140.976 164.825V156.095C140.976 154.268 139.496 152.786 137.67 152.786Z" fill="#6C63FF"/>
<path opacity="0.1" d="M137.67 152.786H105.767C103.941 152.786 102.461 154.268 102.461 156.095V164.825C102.461 166.652 103.941 168.134 105.767 168.134H137.67C139.496 168.134 140.976 166.652 140.976 164.825V156.095C140.976 154.268 139.496 152.786 137.67 152.786Z" fill="black"/>
<path d="M176.184 152.786H144.281C142.456 152.786 140.976 154.268 140.976 156.095V164.825C140.976 166.652 142.456 168.134 144.281 168.134H176.184C178.01 168.134 179.49 166.652 179.49 164.825V156.095C179.49 154.268 178.01 152.786 176.184 152.786Z" fill="#6C63FF"/>
<path d="M214.698 152.786H182.795C180.97 152.786 179.49 154.268 179.49 156.095V164.825C179.49 166.652 180.97 168.134 182.795 168.134H214.698C216.524 168.134 218.004 166.652 218.004 164.825V156.095C218.004 154.268 216.524 152.786 214.698 152.786Z" fill="#6C63FF"/>
<path opacity="0.1" d="M214.698 152.786H182.795C180.97 152.786 179.49 154.268 179.49 156.095V164.825C179.49 166.652 180.97 168.134 182.795 168.134H214.698C216.524 168.134 218.004 166.652 218.004 164.825V156.095C218.004 154.268 216.524 152.786 214.698 152.786Z" fill="black"/>
<path d="M253.212 152.786H221.309C219.484 152.786 218.004 154.268 218.004 156.095V164.825C218.004 166.652 219.484 168.134 221.309 168.134H253.212C255.038 168.134 256.518 166.652 256.518 164.825V156.095C256.518 154.268 255.038 152.786 253.212 152.786Z" fill="#6C63FF"/>
<path d="M291.727 152.786H259.823C257.998 152.786 256.518 154.268 256.518 156.095V164.825C256.518 166.652 257.998 168.134 259.823 168.134H291.727C293.552 168.134 295.032 166.652 295.032 164.825V156.095C295.032 154.268 293.552 152.786 291.727 152.786Z" fill="#6C63FF"/>
<path opacity="0.1" d="M291.727 152.786H259.823C257.998 152.786 256.518 154.268 256.518 156.095V164.825C256.518 166.652 257.998 168.134 259.823 168.134H291.727C293.552 168.134 295.032 166.652 295.032 164.825V156.095C295.032 154.268 293.552 152.786 291.727 152.786Z" fill="black"/>
<path d="M259.823 152.786H291.727C293.552 152.786 295.032 151.305 295.032 149.477V140.748C295.032 138.92 293.552 137.439 291.727 137.439H259.823C257.998 137.439 256.518 138.92 256.518 140.748V149.477C256.518 151.305 257.998 152.786 259.823 152.786Z" fill="#6C63FF"/>
<path d="M221.309 152.786H253.212C255.038 152.786 256.518 151.305 256.518 149.477V140.748C256.518 138.92 255.038 137.439 253.212 137.439H221.309C219.484 137.439 218.004 138.92 218.004 140.748V149.477C218.004 151.305 219.484 152.786 221.309 152.786Z" fill="#6C63FF"/>
<path opacity="0.1" d="M221.309 152.786H253.212C255.038 152.786 256.518 151.305 256.518 149.477V140.748C256.518 138.92 255.038 137.439 253.212 137.439H221.309C219.484 137.439 218.004 138.92 218.004 140.748V149.477C218.004 151.305 219.484 152.786 221.309 152.786Z" fill="black"/>
<path d="M182.795 152.786H214.698C216.524 152.786 218.004 151.305 218.004 149.477V140.748C218.004 138.92 216.524 137.439 214.698 137.439H182.795C180.97 137.439 179.49 138.92 179.49 140.748V149.477C179.49 151.305 180.97 152.786 182.795 152.786Z" fill="#6C63FF"/>
<path d="M144.281 152.786H176.184C178.01 152.786 179.49 151.305 179.49 149.477V140.748C179.49 138.92 178.01 137.439 176.184 137.439H144.281C142.456 137.439 140.976 138.92 140.976 140.748V149.477C140.976 151.305 142.456 152.786 144.281 152.786Z" fill="#6C63FF"/>
<path opacity="0.1" d="M144.281 152.786H176.184C178.01 152.786 179.49 151.305 179.49 149.477V140.748C179.49 138.92 178.01 137.439 176.184 137.439H144.281C142.456 137.439 140.976 138.92 140.976 140.748V149.477C140.976 151.305 142.456 152.786 144.281 152.786Z" fill="black"/>
<path d="M105.767 152.786H137.67C139.496 152.786 140.976 151.305 140.976 149.477V140.748C140.976 138.92 139.496 137.439 137.67 137.439H105.767C103.941 137.439 102.461 138.92 102.461 140.748V149.477C102.461 151.305 103.941 152.786 105.767 152.786Z" fill="#6C63FF"/>
<path d="M67.2529 152.786H99.156C100.982 152.786 102.461 151.305 102.461 149.477V140.748C102.461 138.92 100.982 137.439 99.156 137.439H67.2529C65.4273 137.439 63.9474 138.92 63.9474 140.748V149.477C63.9474 151.305 65.4273 152.786 67.2529 152.786Z" fill="#6C63FF"/>
<path opacity="0.1" d="M67.2529 152.786H99.156C100.982 152.786 102.461 151.305 102.461 149.477V140.748C102.461 138.92 100.982 137.439 99.156 137.439H67.2529C65.4273 137.439 63.9474 138.92 63.9474 140.748V149.477C63.9474 151.305 65.4273 152.786 67.2529 152.786Z" fill="black"/>
<path d="M99.156 122.092H67.2528C65.4273 122.092 63.9474 123.573 63.9474 125.401V134.13C63.9474 135.958 65.4273 137.439 67.2528 137.439H99.156C100.982 137.439 102.461 135.958 102.461 134.13V125.401C102.461 123.573 100.982 122.092 99.156 122.092Z" fill="#6C63FF"/>
<path d="M137.67 122.092H105.767C103.941 122.092 102.461 123.573 102.461 125.401V134.13C102.461 135.958 103.941 137.439 105.767 137.439H137.67C139.496 137.439 140.976 135.958 140.976 134.13V125.401C140.976 123.573 139.496 122.092 137.67 122.092Z" fill="#6C63FF"/>
<path opacity="0.1" d="M137.67 122.092H105.767C103.941 122.092 102.461 123.573 102.461 125.401V134.13C102.461 135.958 103.941 137.439 105.767 137.439H137.67C139.496 137.439 140.976 135.958 140.976 134.13V125.401C140.976 123.573 139.496 122.092 137.67 122.092Z" fill="black"/>
<path d="M176.184 122.092H144.281C142.456 122.092 140.976 123.573 140.976 125.401V134.13C140.976 135.958 142.456 137.439 144.281 137.439H176.184C178.01 137.439 179.49 135.958 179.49 134.13V125.401C179.49 123.573 178.01 122.092 176.184 122.092Z" fill="#6C63FF"/>
<path d="M214.698 122.092H182.795C180.97 122.092 179.49 123.573 179.49 125.401V134.13C179.49 135.958 180.97 137.439 182.795 137.439H214.698C216.524 137.439 218.004 135.958 218.004 134.13V125.401C218.004 123.573 216.524 122.092 214.698 122.092Z" fill="#6C63FF"/>
<path opacity="0.1" d="M214.698 122.092H182.795C180.97 122.092 179.49 123.573 179.49 125.401V134.13C179.49 135.958 180.97 137.439 182.795 137.439H214.698C216.524 137.439 218.004 135.958 218.004 134.13V125.401C218.004 123.573 216.524 122.092 214.698 122.092Z" fill="black"/>
<path d="M253.212 122.092H221.309C219.484 122.092 218.004 123.573 218.004 125.401V134.13C218.004 135.958 219.484 137.439 221.309 137.439H253.212C255.038 137.439 256.518 135.958 256.518 134.13V125.401C256.518 123.573 255.038 122.092 253.212 122.092Z" fill="#6C63FF"/>
<path d="M291.727 122.092H259.823C257.998 122.092 256.518 123.573 256.518 125.401V134.13C256.518 135.958 257.998 137.439 259.823 137.439H291.727C293.552 137.439 295.032 135.958 295.032 134.13V125.401C295.032 123.573 293.552 122.092 291.727 122.092Z" fill="#6C63FF"/>
<path opacity="0.1" d="M291.727 122.092H259.823C257.998 122.092 256.518 123.573 256.518 125.401V134.13C256.518 135.958 257.998 137.439 259.823 137.439H291.727C293.552 137.439 295.032 135.958 295.032 134.13V125.401C295.032 123.573 293.552 122.092 291.727 122.092Z" fill="black"/>
<path d="M259.823 122.092H291.727C293.552 122.092 295.032 120.61 295.032 118.783V110.053C295.032 108.226 293.552 106.744 291.727 106.744H259.823C257.998 106.744 256.518 108.226 256.518 110.053V118.783C256.518 120.61 257.998 122.092 259.823 122.092Z" fill="#6C63FF"/>
<path d="M221.309 122.092H253.212C255.038 122.092 256.518 120.61 256.518 118.783V110.053C256.518 108.226 255.038 106.744 253.212 106.744H221.309C219.484 106.744 218.004 108.226 218.004 110.053V118.783C218.004 120.61 219.484 122.092 221.309 122.092Z" fill="#6C63FF"/>
<path opacity="0.1" d="M221.309 122.092H253.212C255.038 122.092 256.518 120.61 256.518 118.783V110.053C256.518 108.226 255.038 106.744 253.212 106.744H221.309C219.484 106.744 218.004 108.226 218.004 110.053V118.783C218.004 120.61 219.484 122.092 221.309 122.092Z" fill="black"/>
<path d="M182.795 122.092H214.698C216.524 122.092 218.004 120.61 218.004 118.783V110.053C218.004 108.226 216.524 106.744 214.698 106.744H182.795C180.97 106.744 179.49 108.226 179.49 110.053V118.783C179.49 120.61 180.97 122.092 182.795 122.092Z" fill="#6C63FF"/>
<path d="M144.281 122.092H176.184C178.01 122.092 179.49 120.61 179.49 118.783V110.053C179.49 108.226 178.01 106.744 176.184 106.744H144.281C142.456 106.744 140.976 108.226 140.976 110.053V118.783C140.976 120.61 142.456 122.092 144.281 122.092Z" fill="#6C63FF"/>
<path opacity="0.1" d="M144.281 122.092H176.184C178.01 122.092 179.49 120.61 179.49 118.783V110.053C179.49 108.226 178.01 106.744 176.184 106.744H144.281C142.456 106.744 140.976 108.226 140.976 110.053V118.783C140.976 120.61 142.456 122.092 144.281 122.092Z" fill="black"/>
<path d="M105.767 122.092H137.67C139.496 122.092 140.976 120.61 140.976 118.783V110.053C140.976 108.226 139.496 106.744 137.67 106.744H105.767C103.941 106.744 102.461 108.226 102.461 110.053V118.783C102.461 120.61 103.941 122.092 105.767 122.092Z" fill="#6C63FF"/>
<path d="M67.2529 122.092H99.156C100.982 122.092 102.461 120.61 102.461 118.783V110.053C102.461 108.226 100.982 106.744 99.156 106.744H67.2529C65.4273 106.744 63.9474 108.226 63.9474 110.053V118.783C63.9474 120.61 65.4273 122.092 67.2529 122.092Z" fill="#6C63FF"/>
<path opacity="0.1" d="M67.2529 122.092H99.156C100.982 122.092 102.461 120.61 102.461 118.783V110.053C102.461 108.226 100.982 106.744 99.156 106.744H67.2529C65.4273 106.744 63.9474 108.226 63.9474 110.053V118.783C63.9474 120.61 65.4273 122.092 67.2529 122.092Z" fill="black"/>
<path d="M99.156 92.1455H67.2528C65.4273 92.1455 63.9474 93.627 63.9474 95.4546V104.184C63.9474 106.012 65.4273 107.493 67.2528 107.493H99.156C100.982 107.493 102.461 106.012 102.461 104.184V95.4546C102.461 93.627 100.982 92.1455 99.156 92.1455Z" fill="#6C63FF"/>
<path d="M137.67 92.1455H105.767C103.941 92.1455 102.461 93.627 102.461 95.4546V104.184C102.461 106.012 103.941 107.493 105.767 107.493H137.67C139.496 107.493 140.976 106.012 140.976 104.184V95.4546C140.976 93.627 139.496 92.1455 137.67 92.1455Z" fill="#6C63FF"/>
<path opacity="0.1" d="M137.67 92.1455H105.767C103.941 92.1455 102.461 93.627 102.461 95.4546V104.184C102.461 106.012 103.941 107.493 105.767 107.493H137.67C139.496 107.493 140.976 106.012 140.976 104.184V95.4546C140.976 93.627 139.496 92.1455 137.67 92.1455Z" fill="black"/>
<path d="M176.184 92.1455H144.281C142.456 92.1455 140.976 93.627 140.976 95.4546V104.184C140.976 106.012 142.456 107.493 144.281 107.493H176.184C178.01 107.493 179.49 106.012 179.49 104.184V95.4546C179.49 93.627 178.01 92.1455 176.184 92.1455Z" fill="#6C63FF"/>
<path d="M214.698 92.1455H182.795C180.97 92.1455 179.49 93.627 179.49 95.4546V104.184C179.49 106.012 180.97 107.493 182.795 107.493H214.698C216.524 107.493 218.004 106.012 218.004 104.184V95.4546C218.004 93.627 216.524 92.1455 214.698 92.1455Z" fill="#6C63FF"/>
<path opacity="0.1" d="M214.698 92.1455H182.795C180.97 92.1455 179.49 93.627 179.49 95.4546V104.184C179.49 106.012 180.97 107.493 182.795 107.493H214.698C216.524 107.493 218.004 106.012 218.004 104.184V95.4546C218.004 93.627 216.524 92.1455 214.698 92.1455Z" fill="black"/>
<path d="M253.212 92.1455H221.309C219.484 92.1455 218.004 93.627 218.004 95.4546V104.184C218.004 106.012 219.484 107.493 221.309 107.493H253.212C255.038 107.493 256.518 106.012 256.518 104.184V95.4546C256.518 93.627 255.038 92.1455 253.212 92.1455Z" fill="#6C63FF"/>
<path d="M291.727 92.1455H259.823C257.998 92.1455 256.518 93.627 256.518 95.4546V104.184C256.518 106.012 257.998 107.493 259.823 107.493H291.727C293.552 107.493 295.032 106.012 295.032 104.184V95.4546C295.032 93.627 293.552 92.1455 291.727 92.1455Z" fill="#6C63FF"/>
<path opacity="0.1" d="M291.727 92.1455H259.823C257.998 92.1455 256.518 93.627 256.518 95.4546V104.184C256.518 106.012 257.998 107.493 259.823 107.493H291.727C293.552 107.493 295.032 106.012 295.032 104.184V95.4546C295.032 93.627 293.552 92.1455 291.727 92.1455Z" fill="black"/>
<path d="M259.823 92.1455H291.727C293.552 92.1455 295.032 90.664 295.032 88.8364V80.1071C295.032 78.2795 293.552 76.798 291.727 76.798H259.823C257.998 76.798 256.518 78.2795 256.518 80.1071V88.8364C256.518 90.664 257.998 92.1455 259.823 92.1455Z" fill="#6C63FF"/>
<path d="M221.309 92.1455H253.212C255.038 92.1455 256.518 90.664 256.518 88.8364V80.1071C256.518 78.2795 255.038 76.798 253.212 76.798H221.309C219.484 76.798 218.004 78.2795 218.004 80.1071V88.8364C218.004 90.664 219.484 92.1455 221.309 92.1455Z" fill="#6C63FF"/>
<path opacity="0.1" d="M221.309 92.1455H253.212C255.038 92.1455 256.518 90.664 256.518 88.8364V80.1071C256.518 78.2795 255.038 76.798 253.212 76.798H221.309C219.484 76.798 218.004 78.2795 218.004 80.1071V88.8364C218.004 90.664 219.484 92.1455 221.309 92.1455Z" fill="black"/>
<path d="M182.795 92.1455H214.698C216.524 92.1455 218.004 90.664 218.004 88.8364V80.1071C218.004 78.2795 216.524 76.798 214.698 76.798H182.795C180.97 76.798 179.49 78.2795 179.49 80.1071V88.8364C179.49 90.664 180.97 92.1455 182.795 92.1455Z" fill="#6C63FF"/>
<path d="M144.281 92.1455H176.184C178.01 92.1455 179.49 90.664 179.49 88.8364V80.1071C179.49 78.2795 178.01 76.798 176.184 76.798H144.281C142.456 76.798 140.976 78.2795 140.976 80.1071V88.8364C140.976 90.664 142.456 92.1455 144.281 92.1455Z" fill="#6C63FF"/>
<path opacity="0.1" d="M144.281 92.1455H176.184C178.01 92.1455 179.49 90.664 179.49 88.8364V80.1071C179.49 78.2795 178.01 76.798 176.184 76.798H144.281C142.456 76.798 140.976 78.2795 140.976 80.1071V88.8364C140.976 90.664 142.456 92.1455 144.281 92.1455Z" fill="black"/>
<path d="M105.767 92.1455H137.67C139.496 92.1455 140.976 90.664 140.976 88.8364V80.1071C140.976 78.2795 139.496 76.798 137.67 76.798H105.767C103.941 76.798 102.461 78.2795 102.461 80.1071V88.8364C102.461 90.664 103.941 92.1455 105.767 92.1455Z" fill="#6C63FF"/>
<path d="M67.2529 92.1455H99.156C100.982 92.1455 102.461 90.664 102.461 88.8364V80.1071C102.461 78.2795 100.982 76.798 99.156 76.798H67.2529C65.4273 76.798 63.9474 78.2795 63.9474 80.1071V88.8364C63.9474 90.664 65.4273 92.1455 67.2529 92.1455Z" fill="#6C63FF"/>
<path opacity="0.1" d="M67.2529 92.1455H99.156C100.982 92.1455 102.461 90.664 102.461 88.8364V80.1071C102.461 78.2795 100.982 76.798 99.156 76.798H67.2529C65.4273 76.798 63.9474 78.2795 63.9474 80.1071V88.8364C63.9474 90.664 65.4273 92.1455 67.2529 92.1455Z" fill="black"/>
<path d="M99.156 61.4502H67.2528C65.4273 61.4502 63.9474 62.9317 63.9474 64.7593V73.4886C63.9474 75.3162 65.4273 76.7977 67.2528 76.7977H99.156C100.982 76.7977 102.461 75.3162 102.461 73.4886V64.7593C102.461 62.9317 100.982 61.4502 99.156 61.4502Z" fill="#6C63FF"/>
<path d="M137.67 61.4502H105.767C103.941 61.4502 102.461 62.9317 102.461 64.7593V73.4886C102.461 75.3162 103.941 76.7977 105.767 76.7977H137.67C139.496 76.7977 140.976 75.3162 140.976 73.4886V64.7593C140.976 62.9317 139.496 61.4502 137.67 61.4502Z" fill="#6C63FF"/>
<path opacity="0.1" d="M137.67 61.4502H105.767C103.941 61.4502 102.461 62.9317 102.461 64.7593V73.4886C102.461 75.3162 103.941 76.7977 105.767 76.7977H137.67C139.496 76.7977 140.976 75.3162 140.976 73.4886V64.7593C140.976 62.9317 139.496 61.4502 137.67 61.4502Z" fill="black"/>
<path d="M176.184 61.4502H144.281C142.456 61.4502 140.976 62.9317 140.976 64.7593V73.4886C140.976 75.3162 142.456 76.7977 144.281 76.7977H176.184C178.01 76.7977 179.49 75.3162 179.49 73.4886V64.7593C179.49 62.9317 178.01 61.4502 176.184 61.4502Z" fill="#6C63FF"/>
<path d="M214.698 61.4502H182.795C180.97 61.4502 179.49 62.9317 179.49 64.7593V73.4886C179.49 75.3162 180.97 76.7977 182.795 76.7977H214.698C216.524 76.7977 218.004 75.3162 218.004 73.4886V64.7593C218.004 62.9317 216.524 61.4502 214.698 61.4502Z" fill="#6C63FF"/>
<path opacity="0.1" d="M214.698 61.4502H182.795C180.97 61.4502 179.49 62.9317 179.49 64.7593V73.4886C179.49 75.3162 180.97 76.7977 182.795 76.7977H214.698C216.524 76.7977 218.004 75.3162 218.004 73.4886V64.7593C218.004 62.9317 216.524 61.4502 214.698 61.4502Z" fill="black"/>
<path d="M253.212 61.4502H221.309C219.484 61.4502 218.004 62.9317 218.004 64.7593V73.4886C218.004 75.3162 219.484 76.7977 221.309 76.7977H253.212C255.038 76.7977 256.518 75.3162 256.518 73.4886V64.7593C256.518 62.9317 255.038 61.4502 253.212 61.4502Z" fill="#6C63FF"/>
<path d="M291.727 61.4502H259.823C257.998 61.4502 256.518 62.9317 256.518 64.7593V73.4886C256.518 75.3162 257.998 76.7977 259.823 76.7977H291.727C293.552 76.7977 295.032 75.3162 295.032 73.4886V64.7593C295.032 62.9317 293.552 61.4502 291.727 61.4502Z" fill="#6C63FF"/>
<path opacity="0.1" d="M291.727 61.4502H259.823C257.998 61.4502 256.518 62.9317 256.518 64.7593V73.4886C256.518 75.3162 257.998 76.7977 259.823 76.7977H291.727C293.552 76.7977 295.032 75.3162 295.032 73.4886V64.7593C295.032 62.9317 293.552 61.4502 291.727 61.4502Z" fill="black"/>
<path d="M291.727 10.3203H256.832C255.006 10.3203 253.527 11.8018 253.527 13.6294V23.5491C253.527 25.3767 255.006 26.8582 256.832 26.8582H291.727C293.552 26.8582 295.032 25.3767 295.032 23.5491V13.6294C295.032 11.8018 293.552 10.3203 291.727 10.3203Z" fill="url(#paint0_linear)"/>
<path d="M258.328 26.2627L290.231 26.2627C292.056 26.2627 293.536 24.7812 293.536 22.9536V14.2242C293.536 12.3967 292.056 10.9152 290.231 10.9152L258.328 10.9152C256.502 10.9152 255.022 12.3967 255.022 14.2242V22.9536C255.022 24.7812 256.502 26.2627 258.328 26.2627Z" fill="#6C63FF"/>
<path d="M221.309 61.4502L253.212 61.4502C255.038 61.4502 256.518 59.9687 256.518 58.1411V49.4118C256.518 47.5842 255.038 46.1027 253.212 46.1027H221.309C219.484 46.1027 218.004 47.5842 218.004 49.4118V58.1411C218.004 59.9687 219.484 61.4502 221.309 61.4502Z" fill="#6C63FF"/>
<path opacity="0.1" d="M221.309 61.4502L253.212 61.4502C255.038 61.4502 256.518 59.9687 256.518 58.1411V49.4118C256.518 47.5842 255.038 46.1027 253.212 46.1027H221.309C219.484 46.1027 218.004 47.5842 218.004 49.4118V58.1411C218.004 59.9687 219.484 61.4502 221.309 61.4502Z" fill="black"/>
<path d="M182.795 61.4502L214.698 61.4502C216.524 61.4502 218.004 59.9687 218.004 58.1411V49.4118C218.004 47.5842 216.524 46.1027 214.698 46.1027H182.795C180.97 46.1027 179.49 47.5842 179.49 49.4118V58.1411C179.49 59.9687 180.97 61.4502 182.795 61.4502Z" fill="#6C63FF"/>
<path d="M144.281 61.4502L176.184 61.4502C178.01 61.4502 179.49 59.9687 179.49 58.1411V49.4118C179.49 47.5842 178.01 46.1027 176.184 46.1027H144.281C142.456 46.1027 140.976 47.5842 140.976 49.4118V58.1411C140.976 59.9687 142.456 61.4502 144.281 61.4502Z" fill="#6C63FF"/>
<path opacity="0.1" d="M144.281 61.4502L176.184 61.4502C178.01 61.4502 179.49 59.9687 179.49 58.1411V49.4118C179.49 47.5842 178.01 46.1027 176.184 46.1027H144.281C142.456 46.1027 140.976 47.5842 140.976 49.4118V58.1411C140.976 59.9687 142.456 61.4502 144.281 61.4502Z" fill="black"/>
<path d="M105.767 61.4502L137.67 61.4502C139.496 61.4502 140.976 59.9687 140.976 58.1411V49.4118C140.976 47.5842 139.496 46.1027 137.67 46.1027H105.767C103.941 46.1027 102.461 47.5842 102.461 49.4118V58.1411C102.461 59.9687 103.941 61.4502 105.767 61.4502Z" fill="#6C63FF"/>
<path d="M67.2529 61.4502L99.156 61.4502C100.982 61.4502 102.461 59.9687 102.461 58.1411V49.4118C102.461 47.5842 100.982 46.1027 99.156 46.1027H67.2529C65.4273 46.1027 63.9474 47.5842 63.9474 49.4118V58.1411C63.9474 59.9687 65.4273 61.4502 67.2529 61.4502Z" fill="#6C63FF"/>
<path opacity="0.1" d="M67.2529 61.4502L99.156 61.4502C100.982 61.4502 102.461 59.9687 102.461 58.1411V49.4118C102.461 47.5842 100.982 46.1027 99.156 46.1027H67.2529C65.4273 46.1027 63.9474 47.5842 63.9474 49.4118V58.1411C63.9474 59.9687 65.4273 61.4502 67.2529 61.4502Z" fill="black"/>
<path d="M190.588 243C293.637 243 377.176 223.978 377.176 200.514C377.176 177.049 293.637 158.027 190.588 158.027C87.5382 158.027 4 177.049 4 200.514C4 223.978 87.5382 243 190.588 243Z" fill="#F5F5F5"/>
<path d="M46.6085 181.445C46.6085 181.445 49.9738 170.062 45.9803 161.681C44.2877 158.177 43.7772 154.218 44.5258 150.398C44.8952 148.588 45.4297 146.815 46.1224 145.102" stroke="#535461" stroke-width="2" stroke-miterlimit="10"/>
<path d="M43.6471 139.809C43.6471 141.205 46.1711 145.252 46.1711 145.252C46.1711 145.252 48.695 141.205 48.695 139.809C48.695 139.139 48.4291 138.496 47.9558 138.022C47.4824 137.548 46.8405 137.282 46.1711 137.282C45.5017 137.282 44.8597 137.548 44.3863 138.022C43.913 138.496 43.6471 139.139 43.6471 139.809Z" fill="#6C63FF"/>
<path d="M39.4741 147.538C40.222 148.71 44.5482 150.731 44.5482 150.731C44.5482 150.731 44.4697 145.962 43.7107 144.791C43.3449 144.232 42.7733 143.842 42.1206 143.704C41.468 143.566 40.7874 143.692 40.2276 144.056C39.6678 144.419 39.2743 144.989 39.1331 145.641C38.9919 146.294 39.1145 146.976 39.4741 147.538Z" fill="#6C63FF"/>
<path d="M39.6574 160.744C40.9025 161.373 45.6401 160.939 45.6401 160.939C45.6401 160.939 43.1685 156.863 41.9233 156.234C41.3278 155.949 40.6443 155.908 40.0195 156.122C39.3946 156.335 38.8782 156.785 38.5808 157.375C38.2834 157.965 38.2287 158.648 38.4286 159.278C38.6285 159.908 39.0669 160.434 39.6499 160.744H39.6574Z" fill="#6C63FF"/>
<path d="M42.043 170.705C43.1648 171.536 47.9136 171.911 47.9136 171.911C47.9136 171.911 46.1636 167.475 45.0456 166.644C44.5059 166.289 43.8506 166.154 43.2148 166.268C42.579 166.382 42.011 166.735 41.6277 167.256C41.2444 167.776 41.075 168.424 41.1543 169.066C41.2337 169.707 41.5557 170.294 42.0542 170.705H42.043Z" fill="#6C63FF"/>
<path d="M49.8468 151.001C48.8484 151.974 44.1893 152.981 44.1893 152.981C44.1893 152.981 45.3298 148.351 46.3282 147.366C46.5658 147.135 46.8467 146.953 47.1547 146.83C47.4626 146.708 47.7917 146.647 48.1232 146.652C48.4546 146.656 48.7818 146.726 49.0862 146.858C49.3906 146.989 49.6662 147.179 49.8973 147.417C50.1283 147.655 50.3103 147.936 50.4328 148.244C50.5553 148.553 50.6159 148.882 50.6112 149.214C50.6065 149.546 50.5366 149.873 50.4054 150.178C50.2743 150.483 50.0844 150.759 49.8468 150.99V151.001Z" fill="#6C63FF"/>
<path d="M52.4904 162.677C51.2453 163.305 46.5077 162.871 46.5077 162.871C46.5077 162.871 48.9793 158.795 50.2245 158.166C50.8178 157.898 51.4917 157.87 52.1053 158.087C52.7189 158.305 53.2248 158.752 53.5173 159.334C53.8098 159.916 53.8662 160.589 53.6749 161.212C53.4835 161.835 53.0592 162.36 52.4904 162.677Z" fill="#6C63FF"/>
<path d="M53.5 174.401C52.3783 175.232 47.6294 175.606 47.6294 175.606C47.6294 175.606 49.3794 171.17 50.4974 170.339C51.0372 169.984 51.6924 169.849 52.3282 169.963C52.964 170.077 53.532 170.431 53.9153 170.951C54.2986 171.472 54.468 172.119 54.3887 172.761C54.3094 173.403 53.9873 173.989 53.4888 174.401H53.5Z" fill="#6C63FF"/>
<path d="M227.225 116.934C227.225 116.934 239.523 129.245 232.579 147.513C225.636 165.78 244.481 196.175 244.481 196.175C244.481 196.175 244.279 196.146 243.906 196.078C218.647 191.597 206.098 162.677 220.143 141.198C225.363 133.209 229.652 123.844 227.225 116.934Z" fill="#6C63FF"/>
<path opacity="0.2" d="M227.225 116.934C227.225 116.934 239.523 129.245 232.579 147.513C225.636 165.78 244.481 196.175 244.481 196.175C244.481 196.175 244.279 196.146 243.906 196.078C218.647 191.597 206.098 162.677 220.143 141.198C225.363 133.209 229.652 123.844 227.225 116.934Z" fill="black"/>
<path d="M227.225 116.934C227.225 116.934 234.169 132.023 227.225 144.335C220.281 156.646 226.036 191.193 244.493 196.157" stroke="#535461" stroke-miterlimit="10"/>
<path d="M205.324 166.723C205.324 166.723 219.358 164.477 220.636 177.076C221.915 189.676 247.619 191.41 247.619 191.41L247.136 191.732C225.912 205.679 205.631 200.614 208.682 182.096C209.819 175.212 209.718 168.291 205.324 166.723Z" fill="#6C63FF"/>
<path opacity="0.2" d="M205.324 166.723C205.324 166.723 219.358 164.477 220.636 177.076C221.915 189.676 247.619 191.41 247.619 191.41L247.136 191.732C225.912 205.679 205.631 200.614 208.682 182.096C209.819 175.212 209.718 168.291 205.324 166.723Z" fill="#F5F5F5"/>
<path d="M205.324 166.723C205.324 166.723 216.217 169.115 215.323 179.031C214.429 188.947 231.499 200.832 247.619 191.41" stroke="#535461" stroke-miterlimit="10"/>
<path d="M312.087 195.704C312.087 195.704 291.259 191.534 285.703 185.971C280.146 180.408 255.153 170.68 252.375 177.631C249.597 184.582 214.885 208.217 238.51 212.387C262.134 216.557 294.052 217.946 300.996 215.169C307.94 212.391 312.087 195.704 312.087 195.704Z" fill="#A8A8A8"/>
<path opacity="0.2" d="M238.51 209.805C262.116 213.975 294.052 215.364 300.996 212.586C306.283 210.467 309.97 200.297 311.41 195.562L312.105 195.708C312.105 195.708 307.94 212.388 300.996 215.173C294.052 217.958 262.108 216.561 238.51 212.391C231.697 211.186 229.749 208.36 230.482 204.781C231.031 207.113 233.421 208.906 238.51 209.805Z" fill="black"/>
<path d="M354.228 10.5451C353.857 9.61909 353.265 8.79795 352.504 8.15313C346.914 3.05475 337.876 4.60074 330.936 1.48257C329.336 0.763858 327.698 -0.231862 325.963 0.041399C323.54 0.415729 321.285 3.18577 319.173 1.95797L319.322 2.4184L319.173 2.33978L320.728 7.0788C321.326 8.89805 321.955 10.7697 323.114 12.2857C321.397 13.784 320.084 15.6892 319.293 17.827C318.502 19.9648 318.26 22.267 318.587 24.5229C318.915 26.7789 319.803 28.9165 321.169 30.7403C322.535 32.5641 324.337 34.0158 326.408 34.9626C326.483 35.1199 326.554 35.2808 326.625 35.4418L326.823 35.5241C327.283 36.5842 327.627 37.6912 327.848 38.8257C326.049 39.0765 322.912 41.0717 319.831 44.0064L313.668 43.8006C309.683 43.6674 305.826 42.3543 302.585 40.0273L284.128 26.7573C282.814 26.887 281.575 27.4354 280.595 28.322C278.306 25.9338 276.362 23.4557 276.527 21.9584C276.527 21.9584 267.949 5.88843 264.83 13.9216C261.712 21.9547 270.678 30.3921 270.678 30.3921L276.366 37.7701C276.141 39.0637 275.999 40.3702 275.94 41.6819C282.958 49.7187 307.517 56.9882 307.517 56.9882L311.346 57.1754L311.369 57.3625C311.133 58.3685 311.018 59.3988 311.025 60.432C311.025 60.5818 311.025 60.7353 311.025 60.8925C311.025 61.0497 311.025 61.0984 311.025 61.1994C311.219 74.0165 312.973 113.231 312.973 113.231C313.313 113.078 313.668 112.939 314.027 112.808L313.754 116.293C313.754 116.293 297.38 118.588 285.295 123.181C273.21 127.774 272.821 133.131 272.821 133.131V180.394C269.37 182.168 263.922 184.511 261.125 183.25C258.088 181.895 256.424 183.033 256.122 184.219C256.064 184.454 256.064 184.699 256.122 184.934C256.147 185.04 256.186 185.142 256.238 185.237V185.26C256.293 185.359 256.362 185.45 256.443 185.529C257.614 186.679 282.954 196.624 288.803 195.093C288.983 195.046 289.161 194.986 289.333 194.914C289.39 194.891 289.438 194.861 289.494 194.835C289.55 194.809 289.711 194.734 289.812 194.674C289.913 194.614 289.928 194.596 289.984 194.558C290.04 194.521 290.16 194.442 290.242 194.379C290.324 194.315 290.351 194.281 290.403 194.233C290.455 194.184 290.556 194.102 290.624 194.027C290.691 193.952 290.721 193.914 290.769 193.858C290.818 193.802 290.904 193.708 290.964 193.626C291.024 193.544 291.046 193.503 291.091 193.443C291.136 193.383 291.211 193.27 291.263 193.181C291.315 193.091 291.334 193.053 291.368 192.986C291.401 192.919 291.472 192.795 291.521 192.694C291.57 192.593 291.581 192.563 291.607 192.496C291.633 192.428 291.7 192.282 291.742 192.174C291.783 192.065 291.786 192.043 291.813 191.975C291.839 191.908 291.895 191.74 291.929 191.601C291.929 191.537 291.962 191.474 291.981 191.41C292.015 191.279 292.052 191.152 292.082 191.036C292.082 190.976 292.108 190.916 292.119 190.856C292.149 190.714 292.179 190.572 292.201 190.429C292.201 190.377 292.201 190.321 292.228 190.268C292.254 190.115 292.276 189.958 292.295 189.804V189.669C292.314 189.501 292.332 189.333 292.347 189.164V189.059C292.362 188.877 292.373 188.695 292.381 188.513V188.438C292.381 188.243 292.381 188.049 292.381 187.854V187.816C292.374 185.534 292.123 183.259 291.633 181.03L293.103 140.778C300.76 140.897 308.419 140.615 316.047 139.932L316.884 159.143C316.884 159.143 316.884 171.769 321.173 177.507C324.845 182.419 329.085 204.141 330.229 210.306C328.655 213.301 325.641 217.044 320.392 216.917C320.392 216.917 310.516 216.063 311.073 218.789C311.089 218.86 311.11 218.93 311.137 218.998C311.168 219.077 311.204 219.153 311.245 219.227C311.287 219.298 311.331 219.369 311.384 219.444L311.414 219.489C311.47 219.567 311.533 219.65 311.604 219.736V219.754C311.672 219.833 311.743 219.912 311.821 219.99L311.889 220.058C311.978 220.147 312.068 220.237 312.173 220.331C317.239 224.924 346.869 225.687 346.869 225.687V225.583C346.869 225.553 346.869 225.515 346.869 225.474C346.869 224.145 346.675 217.175 344.902 211.927H345.314C345.314 211.927 341.025 173.281 337.517 168.692C337.517 168.692 336.586 148.313 338.688 135.545L339.062 135.403C348.888 131.727 349.588 122.676 348.574 116.028C350.444 116.626 351.536 117.034 351.536 117.034C351.536 117.034 351.502 116.746 351.438 116.233L351.536 116.271C351.536 116.271 351.349 115.054 351.038 113.16C350.335 107.946 348.974 98.8345 347.523 94.5335C347.288 93.5864 347.064 92.7779 346.858 92.1677C346.021 89.5832 345.446 86.9207 345.142 84.2207C344.744 80.721 344.543 77.2018 344.54 73.6796C344.571 68.9736 344.931 64.2756 345.616 59.6198C346.211 55.5545 346.738 50.9278 346.701 47.6973C346.742 46.5692 346.663 45.4398 346.465 44.3284C345.946 41.9439 343.646 40.3942 341.257 39.4059C341.103 39.3423 340.946 39.2899 340.789 39.23C340.849 38.3279 340.924 37.3022 341.021 36.2354C341.307 36.434 341.631 36.5723 341.972 36.6418C342.314 36.7113 342.665 36.7105 343.006 36.6396C344.035 36.415 344.771 35.5578 345.426 34.768C348.881 30.5193 352.429 26.091 353.757 20.813C354.293 18.4559 354.544 16.0429 354.505 13.6258C354.505 13.4936 354.505 13.3613 354.505 13.229C354.568 12.3251 354.475 11.4169 354.228 10.5451Z" fill="url(#paint1_linear)"/>
<path d="M322.77 31.2569C322.77 31.2569 328.005 39.1178 326.883 42.8611C325.761 46.6044 339.222 44.3585 339.222 44.3585C339.222 44.3585 339.596 29.7596 342.214 26.3906C344.831 23.0216 322.77 31.2569 322.77 31.2569Z" fill="#F7C4A7"/>
<path d="M288.182 36.3104C288.182 36.3104 277.338 27.3265 277.712 23.9575C277.712 23.9575 269.486 8.23564 266.494 16.0966C263.503 23.9575 272.103 32.1928 272.103 32.1928L282.573 46.043L288.182 36.3104Z" fill="#F7C4A7"/>
<path d="M277.151 177.245C277.151 177.245 267.055 183.609 262.942 181.737C258.829 179.865 257.333 182.86 258.455 183.983C259.577 185.106 283.882 194.839 289.491 193.341C295.099 191.844 292.246 179.581 292.246 179.581L277.151 177.245Z" fill="#535461"/>
<path d="M330.622 204.572C330.622 204.572 328.192 214.866 319.778 214.678C319.778 214.678 307.065 213.555 311.926 218.047C316.787 222.539 345.205 223.288 345.205 223.288C345.205 223.288 345.205 207.941 339.97 204.572C334.735 201.203 330.622 204.572 330.622 204.572Z" fill="#535461"/>
<path d="M315.291 131.952L316.413 158.155C316.413 158.155 316.413 170.508 320.526 176.122C324.639 181.737 329.5 209.812 329.5 209.812H343.709C343.709 209.812 339.596 172.005 336.231 167.513C336.231 167.513 334.735 134.198 339.97 126.711L315.291 131.952Z" fill="#575988"/>
<path opacity="0.1" d="M315.291 131.952L316.413 158.155C316.413 158.155 316.413 170.508 320.526 176.122C324.639 181.737 329.5 209.812 329.5 209.812H343.709C343.709 209.812 339.596 172.005 336.231 167.513C336.231 167.513 334.735 134.198 339.97 126.711L315.291 131.952Z" fill="black"/>
<path d="M344.831 108.369C344.831 108.369 353.431 128.957 337.727 134.946C322.022 140.935 293.604 140.187 293.604 140.187L292.108 183.609C292.108 183.609 274.534 185.855 274.16 180.24V132.7C274.16 132.7 274.534 127.46 286.125 122.968C297.717 118.476 313.422 116.23 313.422 116.23L314.169 106.497L344.831 108.369Z" fill="#575988"/>
<path opacity="0.1" d="M331.052 40.5434C334.039 40.2123 337.061 40.6397 339.839 41.7861C342.131 42.7519 344.326 44.2679 344.835 46.6C345.426 49.3626 344.771 55.5577 344.02 60.8021C342.816 69.0206 342.662 77.3591 343.564 85.6164C343.938 89.0565 344.48 92.0549 345.209 93.3913C347.452 97.5089 349.696 116.974 349.696 116.974C349.696 116.974 325.017 107.616 312.677 113.231C312.677 113.231 310.995 74.8619 310.808 62.3219C310.662 52.6118 322.96 41.5466 327.074 41.1722C329.482 40.9551 328.655 40.7942 331.052 40.5434Z" fill="black"/>
<path d="M331.052 39.7953C334.039 39.4643 337.061 39.8917 339.839 41.0381C342.131 42.0039 344.326 43.5199 344.835 45.852C345.426 48.6145 344.771 54.8097 344.02 60.054C342.816 68.2725 342.662 76.6111 343.564 84.8684C343.854 87.508 344.406 90.1123 345.209 92.6432C346.891 97.6967 349.696 116.226 349.696 116.226C349.696 116.226 325.017 106.868 312.677 112.483C312.677 112.483 310.995 74.1139 310.808 61.5738C310.662 51.8637 322.96 40.7985 327.074 40.4242C329.482 40.2071 328.655 40.0461 331.052 39.7953Z" fill="#1976D3"/>
<path opacity="0.1" d="M337.727 60.4546L311.178 58.9573C311.178 58.9573 309.488 45.9268 313.321 46.0616L339.596 46.9787C339.596 46.9787 345.205 53.7166 337.727 60.4546Z" fill="black"/>
<path d="M337.727 59.7061L307.439 58.2088C307.439 58.2088 283.882 51.0965 277.151 43.2356C277.151 43.2356 277.525 29.3854 285.003 28.6367L302.694 41.6222C305.786 43.8925 309.489 45.1786 313.321 45.3131L339.596 46.2302C339.596 46.2302 345.205 52.9682 337.727 59.7061Z" fill="#1976D3"/>
<path opacity="0.1" d="M339.035 32.9411C339.48 29.3924 341.088 28.2133 342.214 26.7646C344.831 23.3957 322.77 31.6309 322.77 31.6309C323.91 33.3846 324.91 35.2258 325.761 37.1373C327.52 37.9486 329.433 38.3687 331.37 38.3689C334.608 38.3689 336.71 34.8614 339.035 32.9411Z" fill="black"/>
<path d="M331.37 37.9947C338.804 37.9947 344.831 31.9614 344.831 24.5188C344.831 17.0763 338.804 11.043 331.37 11.043C323.936 11.043 317.909 17.0763 317.909 24.5188C317.909 31.9614 323.936 37.9947 331.37 37.9947Z" fill="#F7C4A7"/>
<path opacity="0.1" d="M322.871 15.0747C321.438 13.5062 320.747 11.4174 320.096 9.39232L318.6 4.75437C320.627 5.95223 322.788 3.25705 325.114 2.88272C326.778 2.61695 328.352 3.59021 329.885 4.29021C336.541 7.33725 345.216 5.82496 350.571 10.8148C351.303 11.4493 351.87 12.2521 352.224 13.1543C352.471 14.0045 352.572 14.8906 352.523 15.7746C352.566 18.1373 352.332 20.4969 351.823 22.8046C350.552 27.9666 347.149 32.3013 343.833 36.4564C343.205 37.2462 342.498 38.0847 341.511 38.3056C339.585 38.736 338.097 36.6548 337.353 34.828C336.367 32.4075 335.64 29.8891 335.184 27.3152C334.989 26.2259 334.836 25.103 334.294 24.1409C333.135 22.0859 330.278 20.1393 328.543 18.5447C326.808 16.95 324.464 16.8153 322.871 15.0747Z" fill="black"/>
<path d="M322.871 14.6997C321.438 13.1312 320.747 11.0424 320.096 9.01732L318.6 4.37937C320.627 5.57723 322.788 2.88205 325.114 2.50772C326.778 2.24195 328.352 3.21521 329.885 3.91521C336.541 6.96225 345.216 5.44996 350.571 10.4398C351.303 11.0743 351.87 11.8771 352.224 12.7793C352.471 13.6295 352.572 14.5156 352.523 15.3996C352.566 17.7623 352.332 20.1219 351.823 22.4296C350.552 27.5916 347.149 31.9263 343.833 36.0814C343.205 36.8712 342.498 37.7097 341.511 37.9306C339.585 38.361 338.097 36.2798 337.353 34.453C336.367 32.0325 335.64 29.5141 335.184 26.9402C334.989 25.8509 334.836 24.728 334.294 23.7659C333.135 21.7109 330.278 19.7643 328.543 18.1697C326.808 16.575 324.464 16.4403 322.871 14.6997Z" fill="#632652"/>
<path d="M334.922 28.4493C335.542 28.4493 336.044 27.3599 336.044 26.0162C336.044 24.6724 335.542 23.583 334.922 23.583C334.303 23.583 333.8 24.6724 333.8 26.0162C333.8 27.3599 334.303 28.4493 334.922 28.4493Z" fill="#F7C4A7"/>
<path opacity="0.1" d="M341.653 90.9619C341.653 90.9619 340.905 93.2079 337.166 92.8336C333.427 92.4592 322.583 91.7106 322.583 92.8336" fill="black"/>
<path opacity="0.5" d="M311.926 217.673C311.253 217.052 310.916 216.55 310.838 216.112C310.741 216.599 311.04 217.235 311.926 218.048C316.787 222.54 345.205 223.288 345.205 223.288C345.205 223.288 345.205 223.157 345.205 222.914C345.022 222.91 316.772 222.15 311.926 217.673Z" fill="white"/>
<path opacity="0.5" d="M289.491 192.592C283.882 194.09 259.577 184.357 258.455 183.234C258.305 183.082 258.198 182.894 258.145 182.688C258.08 182.912 258.074 183.149 258.129 183.376C258.183 183.603 258.296 183.812 258.455 183.983C259.577 185.106 283.882 194.838 289.491 193.341C292.377 192.57 293.02 188.95 292.968 185.615C292.912 188.722 292.16 191.874 289.491 192.592Z" fill="white"/>
<path d="M191.743 188.565C191.892 188.565 192.035 188.506 192.14 188.401C192.245 188.296 192.304 188.153 192.304 188.004C192.304 187.855 192.245 187.712 192.14 187.607C192.035 187.502 191.892 187.442 191.743 187.442C191.594 187.442 191.452 187.502 191.347 187.607C191.241 187.712 191.182 187.855 191.182 188.004C191.182 188.153 191.241 188.296 191.347 188.401C191.452 188.506 191.594 188.565 191.743 188.565Z" fill="#67647E"/>
<path d="M38.2103 178.634C38.2103 178.634 52.1651 178.204 56.368 175.205C60.5709 172.207 77.8312 168.628 78.8744 173.435C79.9177 178.241 99.8478 197.347 84.0794 197.489C68.3111 197.631 47.4761 195.034 43.2769 192.473C39.0778 189.913 38.2103 178.634 38.2103 178.634Z" fill="#A8A8A8"/>
<path opacity="0.2" d="M84.3749 195.801C68.6215 195.928 47.7715 193.345 43.5723 190.785C40.3753 188.834 39.0852 181.842 38.6777 178.615H38.2103C38.2103 178.615 39.0927 189.883 43.2919 192.439C47.491 194.996 68.341 197.601 84.0795 197.489C88.6264 197.451 90.1968 195.834 90.1108 193.435C89.4939 194.869 87.7589 195.774 84.3749 195.801Z" fill="black"/>
<path d="M357.791 214.551H389.695C391.52 214.551 393 213.069 393 211.242V202.512C393 200.685 391.52 199.203 389.695 199.203H357.791C355.966 199.203 354.486 200.685 354.486 202.512V211.242C354.486 213.069 355.966 214.551 357.791 214.551Z" fill="#6C63FF"/>
<path opacity="0.1" d="M357.791 214.551H389.695C391.52 214.551 393 213.069 393 211.242V202.512C393 200.685 391.52 199.203 389.695 199.203H357.791C355.966 199.203 354.486 200.685 354.486 202.512V211.242C354.486 213.069 355.966 214.551 357.791 214.551Z" fill="black"/>
<path d="M389.695 184.604H357.791C355.966 184.604 354.486 186.086 354.486 187.914V196.643C354.486 198.47 355.966 199.952 357.791 199.952H389.695C391.52 199.952 393 198.47 393 196.643V187.914C393 186.086 391.52 184.604 389.695 184.604Z" fill="#6C63FF"/>
<path d="M357.791 184.604H389.695C391.52 184.604 393 183.123 393 181.295V172.566C393 170.738 391.52 169.257 389.695 169.257H357.791C355.966 169.257 354.486 170.738 354.486 172.566V181.295C354.486 183.123 355.966 184.604 357.791 184.604Z" fill="#6C63FF"/>
<path opacity="0.1" d="M357.791 184.604H389.695C391.52 184.604 393 183.123 393 181.295V172.566C393 170.738 391.52 169.257 389.695 169.257H357.791C355.966 169.257 354.486 170.738 354.486 172.566V181.295C354.486 183.123 355.966 184.604 357.791 184.604Z" fill="black"/>
<path d="M389.695 153.909H357.791C355.966 153.909 354.486 155.391 354.486 157.218V165.948C354.486 167.775 355.966 169.257 357.791 169.257H389.695C391.52 169.257 393 167.775 393 165.948V157.218C393 155.391 391.52 153.909 389.695 153.909Z" fill="#6C63FF"/>
</g>
<defs>
<filter id="filter0_d" x="0" y="0" width="397" height="251" filterUnits="userSpaceOnUse" color-interpolation-filters="sRGB">
<feFlood flood-opacity="0" result="BackgroundImageFix"/>
<feColorMatrix in="SourceAlpha" type="matrix" values="0 0 0 0 0 0 0 0 0 0 0 0 0 0 0 0 0 0 127 0"/>
<feOffset dy="4"/>
<feGaussianBlur stdDeviation="2"/>
<feColorMatrix type="matrix" values="0 0 0 0 0 0 0 0 0 0 0 0 0 0 0 0 0 0 0.25 0"/>
<feBlend mode="normal" in2="BackgroundImageFix" result="effect1_dropShadow"/>
<feBlend mode="normal" in="SourceGraphic" in2="effect1_dropShadow" result="shape"/>
</filter>
<linearGradient id="paint0_linear" x1="274.279" y1="26.8582" x2="274.279" y2="10.3203" gradientUnits="userSpaceOnUse">
<stop stop-color="#808080" stop-opacity="0.25"/>
<stop offset="0.54" stop-color="#808080" stop-opacity="0.12"/>
<stop offset="1" stop-color="#808080" stop-opacity="0.1"/>
</linearGradient>
<linearGradient id="paint1_linear" x1="87445.5" y1="164399" x2="87445.5" y2="28306.3" gradientUnits="userSpaceOnUse">
<stop stop-color="#808080" stop-opacity="0.25"/>
<stop offset="0.54" stop-color="#808080" stop-opacity="0.12"/>
<stop offset="1" stop-color="#808080" stop-opacity="0.1"/>
</linearGradient>
<clipPath id="clip0">
<rect width="389" height="243" fill="white" transform="translate(4)"/>
</clipPath>
</defs>
</svg>
