<svg width="344" height="253" viewBox="0 0 344 253" fill="none" xmlns="http://www.w3.org/2000/svg">
<path d="M292.734 252.174V224.12C292.734 224.12 303.678 244.009 292.734 252.174Z" fill="#F1F1F1"/>
<path d="M293.41 252.169L272.722 233.197C272.722 233.197 294.79 238.594 293.41 252.169Z" fill="#F1F1F1"/>
<path d="M74.2214 0H24.7403L0 42.8072L24.7403 85.6147H74.2214L98.9617 42.8072L74.2214 0Z" fill="#CCCCCC"/>
<path d="M27.5174 80.8099H71.4443L93.4078 42.8076L71.4443 4.80518H27.5174L5.55396 42.8076L27.5174 80.8099Z" fill="white"/>
<path d="M26.9869 33.4954C28.1061 33.4954 29.0134 32.5891 29.0134 31.471C29.0134 30.353 28.1061 29.4467 26.9869 29.4467C25.8677 29.4467 24.9604 30.353 24.9604 31.471C24.9604 32.5891 25.8677 33.4954 26.9869 33.4954Z" fill="#CCCCCC"/>
<path d="M26.9869 44.8319C28.1061 44.8319 29.0134 43.9255 29.0134 42.8075C29.0134 41.6894 28.1061 40.7831 26.9869 40.7831C25.8677 40.7831 24.9604 41.6894 24.9604 42.8075C24.9604 43.9255 25.8677 44.8319 26.9869 44.8319Z" fill="#CCCCCC"/>
<path d="M26.9869 56.1682C28.1061 56.1682 29.0134 55.2618 29.0134 54.1438C29.0134 53.0257 28.1061 52.1194 26.9869 52.1194C25.8677 52.1194 24.9604 53.0257 24.9604 54.1438C24.9604 55.2618 25.8677 56.1682 26.9869 56.1682Z" fill="#CCCCCC"/>
<path d="M74.0015 29.851H35.4983V33.09H74.0015V29.851Z" fill="#CCCCCC"/>
<path d="M74.0015 41.188H35.4983V44.427H74.0015V41.188Z" fill="#CCCCCC"/>
<path d="M74.0015 52.5245H35.4983V55.7636H74.0015V52.5245Z" fill="#CCCCCC"/>
<path d="M319.26 0H269.779L245.038 42.8072L269.779 85.6147H319.26L344 42.8072L319.26 0Z" fill="#CCCCCC"/>
<path d="M272.556 80.8099H316.482L338.446 42.8076L316.482 4.80518H272.556L250.592 42.8076L272.556 80.8099Z" fill="white"/>
<path d="M272.025 33.4948C273.144 33.4948 274.051 32.5885 274.051 31.4704C274.051 30.3524 273.144 29.446 272.025 29.446C270.906 29.446 269.999 30.3524 269.999 31.4704C269.999 32.5885 270.906 33.4948 272.025 33.4948Z" fill="#CCCCCC"/>
<path d="M272.025 44.832C273.144 44.832 274.051 43.9256 274.051 42.8076C274.051 41.6895 273.144 40.7832 272.025 40.7832C270.906 40.7832 269.999 41.6895 269.999 42.8076C269.999 43.9256 270.906 44.832 272.025 44.832Z" fill="#CCCCCC"/>
<path d="M272.025 56.1681C273.144 56.1681 274.051 55.2618 274.051 54.1438C274.051 53.0257 273.144 52.1194 272.025 52.1194C270.906 52.1194 269.999 53.0257 269.999 54.1438C269.999 55.2618 270.906 56.1681 272.025 56.1681Z" fill="#CCCCCC"/>
<path d="M319.04 29.851H280.536V33.09H319.04V29.851Z" fill="#CCCCCC"/>
<path d="M319.04 41.188H280.536V44.427H319.04V41.188Z" fill="#CCCCCC"/>
<path d="M319.04 52.5245H280.536V55.7636H319.04V52.5245Z" fill="#CCCCCC"/>
<path d="M196.5 0.416016H147.5L123 42.8074L147.5 85.1993H196.5L221.001 42.8074L196.5 0.416016Z" fill="#CCCCCC"/>
<path d="M150.25 80.4408H193.75L215.5 42.8074L193.75 5.17407H150.25L128.5 42.8074L150.25 80.4408Z" fill="white"/>
<path d="M149.724 33.5854C150.833 33.5854 151.731 32.6878 151.731 31.5807C151.731 30.4735 150.833 29.5759 149.724 29.5759C148.616 29.5759 147.718 30.4735 147.718 31.5807C147.718 32.6878 148.616 33.5854 149.724 33.5854Z" fill="#1976D3"/>
<path d="M149.724 44.8122C150.833 44.8122 151.731 43.9146 151.731 42.8075C151.731 41.7003 150.833 40.8027 149.724 40.8027C148.616 40.8027 147.718 41.7003 147.718 42.8075C147.718 43.9146 148.616 44.8122 149.724 44.8122Z" fill="#1976D3"/>
<path d="M149.724 56.0387C150.833 56.0387 151.731 55.1412 151.731 54.034C151.731 52.9268 150.833 52.0293 149.724 52.0293C148.616 52.0293 147.718 52.9268 147.718 54.034C147.718 55.1412 148.616 56.0387 149.724 56.0387Z" fill="#1976D3"/>
<path d="M196.282 29.9771H158.153V33.1846H196.282V29.9771Z" fill="#1976D3"/>
<path d="M196.282 41.2037H158.153V44.4113H196.282V41.2037Z" fill="#1976D3"/>
<path d="M196.282 52.4299H158.153V55.6375H196.282V52.4299Z" fill="#1976D3"/>
<path d="M213.774 248.096L209.015 248.095L206.751 229.757L213.775 229.757L213.774 248.096Z" fill="#9F616A"/>
<path d="M214.988 252.704L199.642 252.704V252.51C199.642 250.927 200.271 249.41 201.391 248.291C202.512 247.172 204.031 246.543 205.615 246.543H205.615L214.988 246.543L214.988 252.704Z" fill="#2F2E41"/>
<path d="M258.031 248.096L253.271 248.095L251.007 229.757L258.031 229.757L258.031 248.096Z" fill="#9F616A"/>
<path d="M259.244 252.704L243.898 252.704V252.51C243.898 250.927 244.527 249.41 245.648 248.291C246.768 247.172 248.287 246.543 249.871 246.543H249.872L259.244 246.543L259.244 252.704Z" fill="#2F2E41"/>
<path d="M211.877 155.032C211.877 155.032 207.882 165.864 208.453 170.425C209.024 174.985 204.458 206.912 205.029 209.762C205.6 212.613 204.458 226.866 205.029 229.146C205.6 231.426 203.427 234.15 204.569 236.431C205.71 238.711 207.312 243.399 207.312 243.399L214.731 242.829L215.872 236.557C215.872 236.557 219.296 235.987 218.726 232.567C218.155 229.146 221.579 206.342 221.579 206.342L231.281 174.415L244.978 203.491C244.978 203.491 245.549 224.015 247.261 226.295C248.973 228.576 245.549 234.847 247.261 237.127C248.973 239.408 250.685 243.399 250.685 243.399H259.246V238.838C259.246 238.838 264.382 235.987 259.246 227.436L255.775 176.079L252.351 152.705L211.877 155.032Z" fill="#2F2E41"/>
<path d="M233.152 83.3454C239.039 83.3454 243.811 78.578 243.811 72.6971C243.811 66.8162 239.039 62.0488 233.152 62.0488C227.265 62.0488 222.493 66.8162 222.493 72.6971C222.493 78.578 227.265 83.3454 233.152 83.3454Z" fill="#A0616A"/>
<path d="M224.081 71.9623C224.833 73.8821 225.586 75.8018 226.338 77.7215C227.262 80.0815 228.321 82.6064 230.489 83.9235C233.165 85.5497 236.739 84.7568 239.327 82.9952C241.656 81.4109 243.443 79.1527 244.449 76.524C245.455 73.8953 245.632 71.022 244.956 68.29C244.279 65.558 242.782 63.0982 240.666 61.241C238.549 59.3837 235.914 58.218 233.115 57.9004L233.008 59.828L230.64 57.8453C230.465 58.1455 230.224 58.4021 229.936 58.5959C229.647 58.7898 229.318 58.9157 228.974 58.9644C228.629 59.013 228.278 58.9831 227.947 58.8768C227.616 58.7706 227.313 58.5907 227.062 58.3509C227.684 59.6388 226.966 61.2096 225.929 62.1963C224.656 63.4083 221.013 64.865 221.164 67.0317C221.265 68.4776 223.494 70.4639 224.081 71.9623Z" fill="#2F2E41"/>
<path d="M262.494 170.783C262.861 170.235 263.104 169.614 263.205 168.963C263.306 168.311 263.262 167.646 263.078 167.013C262.894 166.38 262.572 165.795 262.137 165.3C261.702 164.804 261.164 164.41 260.56 164.145L260.773 153.844L254.538 152.188L254.441 166.739C254.063 167.782 254.081 168.928 254.491 169.959C254.902 170.99 255.677 171.835 256.669 172.334C257.662 172.832 258.803 172.95 259.877 172.664C260.95 172.378 261.881 171.709 262.494 170.783Z" fill="#9F616A"/>
<path d="M241.07 89.9267C241.07 89.9267 232.81 85.8009 225.009 88.5514C217.208 91.302 213.078 94.5109 213.078 94.5109L218.126 121.099L211.242 156.856C211.242 156.856 246.577 154.105 249.789 156.856C253.002 159.606 253.002 153.647 253.002 153.647L250.248 119.724L255.296 98.1783L241.07 89.9267Z" fill="#3F3D56"/>
<path d="M206.207 171.393C206.714 170.971 207.121 170.442 207.401 169.845C207.681 169.248 207.827 168.598 207.828 167.938C207.829 167.279 207.685 166.628 207.406 166.03C207.128 165.433 206.722 164.903 206.217 164.479L209.316 154.652L203.798 151.314L199.616 165.253C198.959 166.149 198.654 167.253 198.758 168.358C198.863 169.463 199.369 170.491 200.182 171.248C200.994 172.005 202.056 172.438 203.167 172.464C204.277 172.491 205.359 172.11 206.207 171.393Z" fill="#9F616A"/>
<path d="M216.29 94.5107H213.078C213.078 94.5107 208.03 97.7197 208.03 102.304C208.03 106.888 200.688 160.523 200.688 160.523L208.489 161.899L215.372 124.308L220.42 114.223L216.29 94.5107Z" fill="#3F3D56"/>
<path d="M246.577 98.1782H255.296C255.296 98.1782 258.05 100.929 259.426 107.347C260.803 113.765 262.18 138.978 262.18 138.978L261.262 161.899H254.378L253.461 132.101L248.872 112.848L246.577 98.1782Z" fill="#3F3D56"/>
<path d="M312.449 253H164.54C164.437 253 164.338 252.959 164.266 252.886C164.193 252.813 164.152 252.715 164.152 252.612C164.152 252.509 164.193 252.41 164.266 252.338C164.338 252.265 164.437 252.224 164.54 252.224H312.449C312.552 252.224 312.65 252.265 312.723 252.338C312.796 252.41 312.837 252.509 312.837 252.612C312.837 252.715 312.796 252.813 312.723 252.886C312.65 252.959 312.552 253 312.449 253Z" fill="#CBCBCB"/>
</svg>
