<svg width="339" height="233" viewBox="0 0 339 233" fill="none" xmlns="http://www.w3.org/2000/svg">
<g clip-path="url(#clip0)">
<path d="M46.5221 231.667C33.0415 228.16 21.1293 220.23 12.6949 209.148C4.26055 198.066 -0.207448 184.475 0.00713989 170.552C0.0606055 167.083 0.425468 163.542 1.88425 160.394C3.34303 157.246 6.0527 154.523 9.44219 153.777C13.1413 152.963 17.0447 154.627 19.8014 157.224C22.5581 159.82 24.3657 163.246 26.0287 166.648C36.0454 187.138 43.6559 209.123 46.5053 231.75L46.5221 231.667Z" fill="#F2F2F2"/>
<path d="M7.76406 154.461L14.7843 170.405L21.8046 186.349C24.0279 191.399 26.247 196.451 28.5451 201.467C30.823 206.439 33.1789 211.377 35.6922 216.235C38.202 221.087 40.8694 225.859 43.7648 230.491C44.1253 231.068 44.4894 231.643 44.8571 232.215C45.1115 232.611 45.7475 232.244 45.4913 231.844C42.5404 227.246 39.8213 222.503 37.2711 217.673C34.7182 212.837 32.3321 207.914 30.0341 202.953C27.7239 197.964 25.5025 192.936 23.287 187.905C20.955 182.61 18.6233 177.314 16.2921 172.019L9.27185 156.074L8.39821 154.09C8.20823 153.659 7.57519 154.032 7.76401 154.461L7.76406 154.461Z" fill="white"/>
<path d="M43.5937 231.777C35.6476 233.594 27.3213 232.692 19.9495 229.215C12.5777 225.737 6.58737 219.886 2.93872 212.6C2.02964 210.785 1.26258 208.848 1.1698 206.82C1.07701 204.791 1.74851 202.647 3.30683 201.345C5.00751 199.924 7.48349 199.734 9.61597 200.339C11.7484 200.943 13.6121 202.234 15.3942 203.551C26.1283 211.486 36.0171 220.846 43.6072 231.825L43.5937 231.777Z" fill="#F2F2F2"/>
<path d="M2.62027 202.153L10.5712 208.537L18.5221 214.92C21.0402 216.942 23.5566 218.966 26.1045 220.95C28.6299 222.917 31.1867 224.845 33.8035 226.689C36.4167 228.53 39.0904 230.288 41.8447 231.912C42.1876 232.114 42.5319 232.314 42.8773 232.512C43.1165 232.649 43.3474 232.286 43.1065 232.148C40.3327 230.557 37.6401 228.829 35.0114 227.009C32.3799 225.187 29.8117 223.275 27.2787 221.319C24.7321 219.353 22.2208 217.342 19.7119 215.328C17.071 213.208 14.4303 211.088 11.7898 208.967L3.8389 202.584L2.84946 201.789C2.63429 201.617 2.40643 201.981 2.62027 202.153V202.153Z" fill="white"/>
<path d="M335.93 0H122.33C121.516 0.000902839 120.736 0.324538 120.16 0.899895C119.585 1.47525 119.261 2.25534 119.26 3.06901V147.751C119.261 148.565 119.585 149.345 120.16 149.92C120.736 150.496 121.516 150.819 122.33 150.82H335.93C336.744 150.819 337.524 150.496 338.1 149.92C338.675 149.345 338.999 148.565 339 147.751V3.06901C338.999 2.25534 338.675 1.47525 338.1 0.899895C337.524 0.324538 336.744 0.000902839 335.93 0ZM338.123 147.751C338.123 148.332 337.891 148.89 337.48 149.301C337.069 149.712 336.511 149.943 335.93 149.943H122.33C121.749 149.943 121.191 149.712 120.78 149.301C120.369 148.89 120.138 148.332 120.137 147.751V3.06901C120.138 2.48769 120.369 1.93025 120.78 1.51919C121.191 1.10813 121.749 0.877094 122.33 0.876861H335.93C336.511 0.877094 337.069 1.10813 337.48 1.51919C337.891 1.93025 338.123 2.48769 338.123 3.06901V147.751Z" fill="#3F3D56"/>
<path d="M338.561 12.2939H119.699V13.1708H338.561V12.2939Z" fill="#3F3D56"/>
<path d="M127.155 9.20746C128.608 9.20746 129.787 8.0297 129.787 6.57687C129.787 5.12404 128.608 3.94629 127.155 3.94629C125.702 3.94629 124.523 5.12404 124.523 6.57687C124.523 8.0297 125.702 9.20746 127.155 9.20746Z" fill="#3F3D56"/>
<path d="M134.721 9.20746C136.174 9.20746 137.353 8.0297 137.353 6.57687C137.353 5.12404 136.174 3.94629 134.721 3.94629C133.268 3.94629 132.089 5.12404 132.089 6.57687C132.089 8.0297 133.268 9.20746 134.721 9.20746Z" fill="#3F3D56"/>
<path d="M142.287 9.20746C143.74 9.20746 144.919 8.0297 144.919 6.57687C144.919 5.12404 143.74 3.94629 142.287 3.94629C140.833 3.94629 139.655 5.12404 139.655 6.57687C139.655 8.0297 140.833 9.20746 142.287 9.20746Z" fill="#3F3D56"/>
<path d="M173.15 32.6634H136.308C135.493 32.6634 134.713 32.3401 134.137 31.7645C133.561 31.189 133.238 30.4084 133.238 29.5944C133.238 28.7805 133.561 27.9998 134.137 27.4243C134.713 26.8487 135.493 26.5254 136.308 26.5254H173.15C173.965 26.5254 174.746 26.8487 175.321 27.4243C175.897 27.9998 176.221 28.7805 176.221 29.5944C176.221 30.4084 175.897 31.189 175.321 31.7645C174.746 32.3401 173.965 32.6634 173.15 32.6634Z" fill="#CCCCCC"/>
<path d="M223.59 47.5697H136.308C135.493 47.5697 134.713 47.2463 134.137 46.6708C133.561 46.0952 133.238 45.3146 133.238 44.5007C133.238 43.6867 133.561 42.9061 134.137 42.3305C134.713 41.755 135.493 41.4316 136.308 41.4316H223.59C224.404 41.4316 225.185 41.755 225.761 42.3305C226.336 42.9061 226.66 43.6867 226.66 44.5007C226.66 45.3146 226.336 46.0952 225.761 46.6708C225.185 47.2463 224.404 47.5697 223.59 47.5697Z" fill="#CCCCCC"/>
<path d="M251.757 53.499C247.645 59.4912 245.249 66.4919 244.826 73.7458C244.403 80.9996 245.97 88.2312 249.357 94.6601C252.745 101.089 257.824 106.471 264.048 110.226C270.271 113.98 277.402 115.965 284.671 115.965V81.1364L251.757 53.499Z" fill="#1976D3"/>
<path d="M284.671 36.1709C278.189 36.1668 271.804 37.7427 266.068 40.7622C260.333 43.7816 255.42 48.1535 251.757 53.499L284.671 81.1364V36.1709Z" fill="#CCCCCC"/>
<path d="M284.671 116.404H284.233V35.7324H284.671C295.373 35.7324 305.637 39.9821 313.204 47.5464C320.771 55.1108 325.023 65.3704 325.023 76.068C325.023 86.7657 320.771 97.0252 313.204 104.59C305.637 112.154 295.373 116.404 284.671 116.404ZM285.11 36.6116V115.524C295.502 115.409 305.43 111.201 312.738 103.814C320.046 96.4272 324.145 86.4572 324.145 76.068C324.145 65.6789 320.046 55.7089 312.738 48.3219C305.43 40.935 295.502 36.7271 285.11 36.6116Z" fill="#3F3D56"/>
<path d="M161.747 132.845H154.29C153.767 132.844 153.266 132.636 152.896 132.266C152.526 131.897 152.317 131.395 152.317 130.872V109.389C152.317 108.866 152.526 108.364 152.896 107.995C153.266 107.625 153.767 107.417 154.29 107.416H161.747C162.27 107.417 162.772 107.625 163.142 107.995C163.512 108.364 163.72 108.866 163.72 109.389V130.872C163.72 131.395 163.512 131.897 163.142 132.266C162.772 132.636 162.27 132.844 161.747 132.845Z" fill="#41C284"/>
<path d="M183.677 132.845H176.221C175.697 132.844 175.196 132.636 174.826 132.266C174.456 131.897 174.248 131.395 174.247 130.872V99.305C174.248 98.7819 174.456 98.2804 174.826 97.9105C175.196 97.5407 175.697 97.3326 176.221 97.332H183.677C184.2 97.3326 184.702 97.5407 185.072 97.9105C185.442 98.2804 185.65 98.7819 185.651 99.305V130.872C185.65 131.395 185.442 131.897 185.072 132.266C184.702 132.636 184.2 132.844 183.677 132.845Z" fill="#FF7D49"/>
<path d="M205.607 132.845H198.151C197.627 132.844 197.126 132.636 196.756 132.266C196.386 131.897 196.178 131.395 196.177 130.872V90.5364C196.178 90.0133 196.386 89.5119 196.756 89.142C197.126 88.7721 197.627 88.5641 198.151 88.5635H205.607C206.13 88.5641 206.632 88.7721 207.002 89.142C207.372 89.5119 207.58 90.0133 207.581 90.5364V130.872C207.58 131.395 207.372 131.897 207.002 132.266C206.632 132.636 206.13 132.844 205.607 132.845Z" fill="#1976D3"/>
<path d="M161.747 133.064H154.29C153.709 133.063 153.152 132.832 152.74 132.421C152.329 132.01 152.098 131.453 152.097 130.872V82.6443C152.098 82.0631 152.329 81.5059 152.74 81.0949C153.152 80.684 153.709 80.4528 154.29 80.4521H161.747C162.328 80.4528 162.886 80.684 163.297 81.0949C163.708 81.5059 163.939 82.0631 163.94 82.6443V130.872C163.939 131.453 163.708 132.01 163.297 132.421C162.886 132.832 162.328 133.063 161.747 133.064ZM154.29 81.329C153.942 81.3294 153.607 81.4681 153.36 81.7147C153.114 81.9613 152.975 82.2956 152.975 82.6443V130.872C152.975 131.22 153.114 131.555 153.36 131.801C153.607 132.048 153.942 132.187 154.29 132.187H161.747C162.096 132.187 162.43 132.048 162.677 131.801C162.923 131.555 163.062 131.22 163.062 130.872V82.6443C163.062 82.2956 162.923 81.9613 162.677 81.7147C162.43 81.4681 162.096 81.3294 161.747 81.329H154.29Z" fill="#3F3D56"/>
<path d="M183.677 133.064H176.221C175.639 133.063 175.082 132.832 174.671 132.421C174.26 132.01 174.028 131.453 174.028 130.872V82.6443C174.028 82.0631 174.26 81.5059 174.671 81.0949C175.082 80.684 175.639 80.4528 176.221 80.4521H183.677C184.258 80.4528 184.816 80.684 185.227 81.0949C185.638 81.5059 185.869 82.0631 185.87 82.6443V130.872C185.869 131.453 185.638 132.01 185.227 132.421C184.816 132.832 184.258 133.063 183.677 133.064ZM176.221 81.329C175.872 81.3294 175.537 81.4681 175.291 81.7147C175.044 81.9613 174.905 82.2956 174.905 82.6443V130.872C174.905 131.22 175.044 131.555 175.291 131.801C175.537 132.048 175.872 132.187 176.221 132.187H183.677C184.026 132.187 184.36 132.048 184.607 131.801C184.854 131.555 184.992 131.22 184.993 130.872V82.6443C184.992 82.2956 184.854 81.9613 184.607 81.7147C184.36 81.4681 184.026 81.3294 183.677 81.329H176.221Z" fill="#3F3D56"/>
<path d="M205.607 133.064H198.151C197.569 133.063 197.012 132.832 196.601 132.421C196.19 132.01 195.958 131.453 195.958 130.872V82.6443C195.958 82.0631 196.19 81.5059 196.601 81.0949C197.012 80.684 197.569 80.4528 198.151 80.4521H205.607C206.188 80.4528 206.746 80.684 207.157 81.0949C207.568 81.5059 207.799 82.0631 207.8 82.6443V130.872C207.799 131.453 207.568 132.01 207.157 132.421C206.746 132.832 206.188 133.063 205.607 133.064ZM198.151 81.329C197.802 81.3294 197.467 81.4681 197.221 81.7147C196.974 81.9613 196.835 82.2956 196.835 82.6443V130.872C196.835 131.22 196.974 131.555 197.221 131.801C197.467 132.048 197.802 132.187 198.151 132.187H205.607C205.956 132.187 206.29 132.048 206.537 131.801C206.784 131.555 206.922 131.22 206.923 130.872V82.6443C206.922 82.2956 206.784 81.9613 206.537 81.7147C206.29 81.4681 205.956 81.3294 205.607 81.329H198.151Z" fill="#3F3D56"/>
<path d="M49.3127 157.397C49.4831 156.776 49.5151 156.124 49.4064 155.489C49.2978 154.854 49.0511 154.25 48.6837 153.72C48.3164 153.191 47.8373 152.748 47.2803 152.423C46.7232 152.099 46.1017 151.9 45.4596 151.842L41.6877 136.635L36.1672 142.621L40.5954 156.144C40.5685 157.229 40.9407 158.286 41.6413 159.114C42.342 159.943 43.3225 160.486 44.397 160.641C45.4715 160.796 46.5654 160.551 47.4714 159.953C48.3774 159.355 49.0325 158.446 49.3127 157.397H49.3127Z" fill="#FFB8B8"/>
<path d="M39.1999 152.721C38.9441 152.614 38.7135 152.455 38.5233 152.253C38.3331 152.051 38.1874 151.812 38.0958 151.55L31.7992 132.181C30.1723 127.529 30.2913 122.444 32.1341 117.873L38.2037 102.811C38.3401 101.987 38.6377 101.198 39.0795 100.489C39.5212 99.7798 40.0984 99.1649 40.7781 98.679C41.4577 98.1932 42.2265 97.846 43.0405 97.6574C43.8545 97.4687 44.6977 97.4423 45.5219 97.5797C46.3461 97.717 47.1351 98.0153 47.8438 98.4577C48.5526 98.9 49.1672 99.4777 49.6525 100.158C50.1378 100.838 50.4842 101.606 50.672 102.42C50.8598 103.234 50.8853 104.077 50.747 104.901L42.373 129.259L45.3042 149.093C45.3432 149.497 45.2573 149.902 45.058 150.255C44.8588 150.609 44.5559 150.892 44.1902 151.068L40.8091 152.68C40.4465 152.853 40.0397 152.911 39.6431 152.847C39.4909 152.823 39.3422 152.78 39.1999 152.721Z" fill="#2F2E41"/>
<path d="M70.3268 227.301L75.7041 227.301L78.262 206.568L70.3259 206.569L70.3268 227.301Z" fill="#FFB8B8"/>
<path d="M86.0745 232.292L69.1748 232.293L69.1745 225.766L79.5448 225.765C81.2765 225.765 82.9373 226.453 84.1618 227.677C85.3864 228.901 86.0744 230.561 86.0745 232.292Z" fill="#2F2E41"/>
<path d="M43.572 227.301L48.9493 227.301L51.5072 206.568L43.5712 206.569L43.572 227.301Z" fill="#FFB8B8"/>
<path d="M59.3198 232.292L42.4202 232.293L42.4199 225.766L52.7901 225.765C54.5218 225.765 56.1826 226.453 57.4072 227.677C58.6318 228.901 59.3197 230.561 59.3198 232.292Z" fill="#2F2E41"/>
<path d="M71.7966 142.802L76.5234 180.238C77.1732 185.384 77.6278 190.55 77.8873 195.734L79.1607 221.193C79.1726 221.431 79.1361 221.668 79.0534 221.891C78.9707 222.114 78.8436 222.317 78.6797 222.49C78.5158 222.662 78.3186 222.799 78.1001 222.893C77.8816 222.986 77.6463 223.035 77.4085 223.035H70.2346C69.8149 223.035 69.4092 222.884 69.0909 222.611C68.7727 222.337 68.563 221.959 68.5 221.544L62.0482 179.054C62.0171 178.849 61.9144 178.662 61.7584 178.526C61.6023 178.389 61.403 178.313 61.1958 178.309C60.9885 178.306 60.7867 178.375 60.6262 178.506C60.4656 178.638 60.3566 178.821 60.3186 179.025L52.5459 220.639C52.469 221.013 52.272 221.352 51.985 221.604C51.6979 221.856 51.3364 222.007 50.9554 222.035L44.3527 222.454C44.1075 222.472 43.8613 222.438 43.6301 222.355C43.3988 222.272 43.1877 222.141 43.0103 221.971C42.8329 221.801 42.6932 221.595 42.6003 221.368C42.5074 221.14 42.4634 220.896 42.4711 220.65L44.6032 152.447L71.7966 142.802Z" fill="#2F2E41"/>
<path d="M50.8543 89.48C56.8038 89.48 61.6268 84.6588 61.6268 78.7117C61.6268 72.7645 56.8038 67.9434 50.8543 67.9434C44.9048 67.9434 40.0818 72.7645 40.0818 78.7117C40.0818 84.6588 44.9048 89.48 50.8543 89.48Z" fill="#FFB8B8"/>
<path d="M42.4104 153.324C45.042 159.462 56.4456 163.846 59.0773 155.078C61.1124 148.299 69.1739 145.45 72.7309 144.507C73.1781 144.388 73.5605 144.098 73.7952 143.699C74.03 143.3 74.0983 142.825 73.9855 142.376L64.0422 103.334C63.463 101.06 62.3096 98.9721 60.6923 97.271C59.075 95.5699 57.0479 94.3122 54.8052 93.6184C46.9018 91.1719 38.5683 96.2095 37.2304 104.369C36.865 106.657 36.6322 108.964 36.5331 111.278C35.7084 128.504 40.6778 149.282 42.4104 153.324Z" fill="#1976D3"/>
<path d="M78.1081 153.313C78.0436 152.672 77.8392 152.052 77.5093 151.498C77.1795 150.945 76.7321 150.47 76.1989 150.107C75.6656 149.745 75.0593 149.504 74.4228 149.401C73.7863 149.299 73.1349 149.337 72.5147 149.513L63.5265 136.678L60.5276 144.247L69.5227 155.275C69.8877 156.297 70.6151 157.15 71.5669 157.672C72.5188 158.193 73.6291 158.348 74.6873 158.106C75.7456 157.864 76.6783 157.242 77.3088 156.359C77.9393 155.476 78.2237 154.392 78.1081 153.313L78.1081 153.313Z" fill="#FFB8B8"/>
<path d="M66.9894 152.582C66.7123 152.575 66.4398 152.509 66.1898 152.389C65.9398 152.269 65.7178 152.098 65.5382 151.887L52.6973 136.075C49.5062 132.318 47.7888 127.531 47.8646 122.603L48.1121 106.366C47.9436 105.549 47.9379 104.706 48.0955 103.886C48.253 103.066 48.5706 102.285 49.0302 101.587C49.4897 100.89 50.0822 100.29 50.7738 99.8221C51.4653 99.3538 52.2424 99.0264 53.0606 98.8584C53.8788 98.6905 54.7221 98.6853 55.5423 98.8433C56.3625 99.0012 57.1436 99.3192 57.8408 99.7789C58.5381 100.239 59.1378 100.831 59.6059 101.523C60.0739 102.214 60.4011 102.991 60.5686 103.809L61.5135 129.548L71.3811 147.004C71.5626 147.366 71.6284 147.776 71.5695 148.177C71.5105 148.578 71.3298 148.951 71.0517 149.247L68.4765 151.966C68.2002 152.258 67.8416 152.458 67.4484 152.541C67.2976 152.573 67.1435 152.587 66.9894 152.582Z" fill="#2F2E41"/>
<path d="M42.6776 87.519C42.9096 87.6565 43.1702 87.7388 43.4391 87.7595C43.708 87.7802 43.9781 87.7387 44.2284 87.6383C44.4787 87.5379 44.7025 87.3813 44.8826 87.1806C45.0626 86.9798 45.194 86.7403 45.2666 86.4807L45.2726 86.4562C45.4682 85.6389 45.3058 84.7855 45.2497 83.947C45.1936 83.1085 45.2757 82.1875 45.847 81.571C46.9119 80.4218 48.8064 81.031 50.3463 80.7404C51.2483 80.5392 52.046 80.0163 52.5901 79.2696C53.1343 78.5229 53.3875 77.6036 53.3025 76.6837C53.2806 76.5094 53.2462 76.3349 53.2077 76.1606C53.1113 75.7188 53.1188 75.2607 53.2294 74.8222C53.34 74.3838 53.5507 73.977 53.8451 73.6337C54.1395 73.2904 54.5095 73.0199 54.926 72.8436C55.3425 72.6673 55.7943 72.5899 56.2457 72.6175C57.802 72.7064 59.4818 73.1777 60.7693 72.0255C61.2413 71.5711 61.569 70.9877 61.7115 70.3483C61.854 69.7088 61.8049 69.0416 61.5704 68.4298C60.8352 66.3086 58.7574 65.198 56.7011 64.5876C54.158 63.853 51.4831 63.6943 48.8709 64.1227C46.2587 64.5512 43.7748 65.5561 41.5999 67.0645C40.3011 67.9796 39.0882 69.1294 38.5346 70.6183C37.9811 72.1072 38.2481 73.9856 39.4964 74.9684C38.5288 75.9925 37.8474 77.2527 37.5206 78.6229C37.1937 79.993 37.2328 81.425 37.634 82.7753C38.2505 84.7612 41.193 86.6651 42.6776 87.519Z" fill="#2F2E41"/>
<path d="M121.101 233H4.87122C4.7549 233 4.64333 232.954 4.56108 232.871C4.47883 232.789 4.43262 232.678 4.43262 232.561C4.43262 232.445 4.47883 232.334 4.56108 232.251C4.64333 232.169 4.7549 232.123 4.87122 232.123H121.101C121.217 232.123 121.329 232.169 121.411 232.251C121.493 232.334 121.539 232.445 121.539 232.561C121.539 232.678 121.493 232.789 121.411 232.871C121.329 232.954 121.217 233 121.101 233Z" fill="#3F3D56"/>
</g>
<defs>
<clipPath id="clip0">
<rect width="339" height="233" fill="white"/>
</clipPath>
</defs>
</svg>
