<svg width="345" height="200" viewBox="0 0 345 200" fill="none" xmlns="http://www.w3.org/2000/svg">
<path d="M176.378 187.808L175.948 187.646C175.854 187.611 166.443 183.998 162.035 175.807C157.627 167.615 159.785 157.753 159.808 157.654L159.909 157.205L160.339 157.367C160.434 157.402 169.844 161.015 174.252 169.206C178.661 177.398 176.502 187.26 176.48 187.359L176.378 187.808ZM162.741 175.426C166.468 182.351 173.904 185.902 175.788 186.712C176.147 184.689 177.27 176.506 173.546 169.587C169.823 162.669 162.384 159.114 160.499 158.301C160.14 160.326 159.017 168.507 162.741 175.426V175.426Z" fill="#3F3D56"/>
<path d="M165.404 172.934C173.326 177.709 176.377 187.195 176.377 187.195C176.377 187.195 166.584 188.938 158.662 184.162C150.74 179.387 147.688 169.901 147.688 169.901C147.688 169.901 157.482 168.158 165.404 172.934Z" fill="#D0CDE1"/>
<path d="M316.209 187.359C316.186 187.261 314.028 177.398 318.436 169.206C322.845 161.015 332.255 157.402 332.349 157.367L332.779 157.205L332.881 157.654C332.903 157.753 335.062 167.615 330.654 175.807C326.245 183.998 316.835 187.611 316.74 187.647L316.31 187.808L316.209 187.359ZM332.19 158.301C330.305 159.114 322.865 162.669 319.142 169.587C315.418 176.506 316.542 184.689 316.9 186.712C318.784 185.902 326.221 182.351 329.948 175.426C333.671 168.507 332.548 160.326 332.19 158.301Z" fill="#3F3D56"/>
<path d="M327.285 172.934C319.362 177.709 316.311 187.195 316.311 187.195C316.311 187.195 326.105 188.938 334.027 184.162C341.949 179.387 345 169.901 345 169.901C345 169.901 335.207 168.158 327.285 172.934Z" fill="#1976D3"/>
<path d="M332.964 186.955H144.137V187.758H332.964V186.955Z" fill="#3F3D56"/>
<path d="M203.051 0H0V109.211H203.051V0Z" fill="#3F3D56"/>
<path d="M195.242 97.3027H10.1866V101.726H195.242V97.3027Z" fill="#D0CDE1"/>
<path d="M116.806 97.3027H10.1866V101.726H116.806V97.3027Z" fill="#1976D3"/>
<path d="M10.1865 94.0524L10.1777 87.9258L17.0998 90.9792L10.1865 94.0524Z" fill="#1976D3"/>
<path d="M23.429 87.7764H21.0522V93.9003H23.429V87.7764Z" fill="#1976D3"/>
<path d="M28.1827 87.7764H25.8058V93.9003H28.1827V87.7764Z" fill="#1976D3"/>
<path d="M191.846 85.0547H11.2052V9.86621H191.846V85.0547ZM11.8843 84.3743H191.167V10.5467H11.8843V84.3743Z" fill="#D0CDE1"/>
<path d="M101.865 63.9611C110.679 63.9611 117.824 56.802 117.824 47.9708C117.824 39.1396 110.679 31.9805 101.865 31.9805C93.0514 31.9805 85.9064 39.1396 85.9064 47.9708C85.9064 56.802 93.0514 63.9611 101.865 63.9611Z" fill="#1976D3"/>
<path d="M141.601 36.1201H121.228V36.8006H141.601V36.1201Z" fill="#D0CDE1"/>
<path d="M80.8212 62.998H60.4481V63.6785H80.8212V62.998Z" fill="#D0CDE1"/>
<path d="M149.071 39.5224C148.467 39.5224 147.876 39.3428 147.373 39.0064C146.871 38.6699 146.479 38.1917 146.248 37.6322C146.016 37.0727 145.956 36.457 146.074 35.8631C146.192 35.2691 146.483 34.7235 146.91 34.2953C147.338 33.867 147.882 33.5754 148.475 33.4573C149.068 33.3391 149.682 33.3998 150.241 33.6315C150.799 33.8633 151.276 34.2557 151.612 34.7593C151.948 35.2628 152.127 35.8548 152.127 36.4604C152.127 37.2725 151.805 38.0513 151.232 38.6256C150.659 39.1998 149.882 39.5224 149.071 39.5224ZM149.071 34.0789C148.601 34.0789 148.141 34.2186 147.751 34.4802C147.36 34.7419 147.055 35.1139 146.875 35.549C146.695 35.9842 146.648 36.4631 146.74 36.925C146.832 37.387 147.058 37.8114 147.39 38.1444C147.723 38.4775 148.146 38.7043 148.607 38.7962C149.068 38.8881 149.546 38.8409 149.981 38.6607C150.415 38.4804 150.786 38.1752 151.047 37.7835C151.309 37.3919 151.448 36.9314 151.448 36.4604C151.448 35.8288 151.197 35.223 150.752 34.7764C150.306 34.3298 149.701 34.0789 149.071 34.0789Z" fill="#D0CDE1"/>
<path d="M149.071 69.8017C148.467 69.8017 147.876 69.6221 147.373 69.2856C146.871 68.9492 146.479 68.471 146.248 67.9115C146.016 67.352 145.956 66.7363 146.074 66.1423C146.192 65.5484 146.483 65.0028 146.91 64.5746C147.338 64.1463 147.882 63.8547 148.475 63.7366C149.068 63.6184 149.682 63.6791 150.241 63.9108C150.799 64.1426 151.276 64.535 151.612 65.0386C151.948 65.5421 152.127 66.1341 152.127 66.7397C152.127 67.5518 151.805 68.3306 151.232 68.9049C150.659 69.4791 149.882 69.8017 149.071 69.8017ZM149.071 64.3582C148.601 64.3582 148.141 64.4978 147.751 64.7595C147.36 65.0212 147.055 65.3932 146.875 65.8283C146.695 66.2635 146.648 66.7423 146.74 67.2043C146.832 67.6663 147.058 68.0906 147.39 68.4237C147.723 68.7568 148.146 68.9836 148.607 69.0755C149.068 69.1674 149.546 69.1202 149.981 68.94C150.415 68.7597 150.786 68.4545 151.047 68.0628C151.309 67.6712 151.448 67.2107 151.448 66.7397C151.448 66.1081 151.197 65.5023 150.752 65.0557C150.306 64.6091 149.701 64.3582 149.071 64.3582Z" fill="#D0CDE1"/>
<path d="M159.937 69.8017C159.332 69.8017 158.741 69.6221 158.239 69.2856C157.736 68.9492 157.345 68.471 157.113 67.9115C156.882 67.352 156.821 66.7363 156.939 66.1423C157.057 65.5484 157.348 65.0028 157.776 64.5746C158.203 64.1463 158.748 63.8547 159.34 63.7366C159.933 63.6184 160.548 63.6791 161.106 63.9108C161.665 64.1426 162.142 64.535 162.478 65.0386C162.813 65.5421 162.993 66.1341 162.993 66.7397C162.993 67.5518 162.671 68.3306 162.098 68.9049C161.524 69.4791 160.747 69.8017 159.937 69.8017ZM159.937 64.3582C159.467 64.3582 159.007 64.4978 158.616 64.7595C158.225 65.0212 157.921 65.3932 157.741 65.8283C157.561 66.2635 157.514 66.7423 157.605 67.2043C157.697 67.6663 157.924 68.0906 158.256 68.4237C158.588 68.7568 159.012 68.9836 159.473 69.0755C159.934 69.1674 160.412 69.1202 160.846 68.94C161.281 68.7597 161.652 68.4545 161.913 68.0628C162.174 67.6712 162.314 67.2107 162.314 66.7397C162.314 66.1081 162.063 65.5023 161.617 65.0557C161.172 64.6091 160.567 64.3582 159.937 64.3582Z" fill="#D0CDE1"/>
<path d="M138.205 69.8017C137.601 69.8017 137.01 69.6221 136.508 69.2856C136.005 68.9492 135.613 68.471 135.382 67.9115C135.151 67.352 135.09 66.7363 135.208 66.1423C135.326 65.5484 135.617 65.0028 136.044 64.5746C136.472 64.1463 137.016 63.8547 137.609 63.7366C138.202 63.6184 138.816 63.6791 139.375 63.9108C139.933 64.1426 140.411 64.535 140.746 65.0386C141.082 65.5421 141.261 66.1341 141.261 66.7397C141.261 67.5518 140.939 68.3306 140.366 68.9049C139.793 69.4791 139.016 69.8017 138.205 69.8017ZM138.205 64.3582C137.735 64.3582 137.276 64.4978 136.885 64.7595C136.494 65.0212 136.189 65.3932 136.009 65.8283C135.83 66.2635 135.782 66.7423 135.874 67.2043C135.966 67.6663 136.192 68.0906 136.525 68.4237C136.857 68.7568 137.281 68.9836 137.742 69.0755C138.203 69.1674 138.681 69.1202 139.115 68.94C139.549 68.7597 139.92 68.4545 140.182 68.0628C140.443 67.6712 140.582 67.2107 140.582 66.7397C140.582 66.1081 140.332 65.5023 139.886 65.0557C139.44 64.6091 138.836 64.3582 138.205 64.3582Z" fill="#D0CDE1"/>
<path d="M51.9594 66.4003C51.355 66.4003 50.7642 66.2207 50.2616 65.8843C49.7591 65.5478 49.3674 65.0696 49.1361 64.5101C48.9048 63.9506 48.8443 63.335 48.9622 62.741C49.0801 62.147 49.3712 61.6014 49.7985 61.1732C50.2259 60.745 50.7704 60.4534 51.3632 60.3352C51.956 60.2171 52.5705 60.2777 53.1289 60.5094C53.6873 60.7412 54.1646 61.1337 54.5004 61.6372C54.8362 62.1407 55.0154 62.7327 55.0154 63.3383C55.0154 64.1504 54.6934 64.9293 54.1203 65.5035C53.5472 66.0777 52.7699 66.4003 51.9594 66.4003ZM51.9594 60.9568C51.4893 60.9568 51.0298 61.0965 50.6389 61.3582C50.2481 61.6199 49.9434 61.9918 49.7635 62.427C49.5836 62.8621 49.5365 63.341 49.6282 63.803C49.72 64.2649 49.9463 64.6893 50.2787 65.0224C50.6111 65.3554 51.0347 65.5822 51.4957 65.6741C51.9568 65.766 52.4347 65.7189 52.869 65.5386C53.3033 65.3583 53.6745 65.0531 53.9357 64.6615C54.1969 64.2698 54.3363 63.8094 54.3363 63.3383C54.3356 62.7069 54.0849 62.1016 53.6393 61.6552C53.1937 61.2087 52.5896 60.9575 51.9594 60.9568Z" fill="#D0CDE1"/>
<path d="M41.0938 66.4003C40.4894 66.4003 39.8985 66.2207 39.396 65.8843C38.8934 65.5478 38.5017 65.0696 38.2704 64.5101C38.0391 63.9506 37.9786 63.335 38.0965 62.741C38.2144 62.147 38.5055 61.6014 38.9329 61.1732C39.3603 60.745 39.9048 60.4534 40.4976 60.3352C41.0904 60.2171 41.7048 60.2777 42.2632 60.5094C42.8216 60.7412 43.2989 61.1337 43.6347 61.6372C43.9705 62.1407 44.1497 62.7327 44.1497 63.3383C44.1497 64.1504 43.8278 64.9293 43.2547 65.5035C42.6816 66.0777 41.9043 66.4003 41.0938 66.4003ZM41.0938 60.9568C40.6237 60.9568 40.1641 61.0965 39.7733 61.3582C39.3824 61.6199 39.0777 61.9918 38.8978 62.427C38.7179 62.8621 38.6709 63.341 38.7626 63.803C38.8543 64.2649 39.0807 64.6893 39.4131 65.0224C39.7455 65.3554 40.169 65.5822 40.6301 65.6741C41.0911 65.766 41.569 65.7189 42.0034 65.5386C42.4377 65.3583 42.8089 65.0531 43.07 64.6615C43.3312 64.2698 43.4706 63.8094 43.4706 63.3383C43.4699 62.7069 43.2192 62.1016 42.7736 61.6552C42.3281 61.2087 41.7239 60.9575 41.0938 60.9568Z" fill="#D0CDE1"/>
<path d="M149.411 42.2441H148.731V59.2551H149.411V42.2441Z" fill="#D0CDE1"/>
<path d="M258.75 46.0172C258.75 46.0172 253.133 45.2131 250.324 55.6662C247.515 66.1193 246.713 66.9234 246.713 66.9234C246.713 66.9234 263.164 69.3357 263.565 68.5316C263.966 67.7275 267.176 48.4295 258.75 46.0172Z" fill="#2F2E41"/>
<path d="M255.54 41.9974C261.524 41.9974 266.374 37.1374 266.374 31.1423C266.374 25.1471 261.524 20.2871 255.54 20.2871C249.557 20.2871 244.706 25.1471 244.706 31.1423C244.706 37.1374 249.557 41.9974 255.54 41.9974Z" fill="#FFB8B8"/>
<path d="M250.725 39.9868C250.725 39.9868 254.336 49.2338 253.133 50.4399C251.929 51.646 267.979 53.2542 267.979 53.2542C267.979 53.2542 269.183 47.2235 264.368 43.6052C264.368 43.6052 262.361 37.5745 262.763 36.3684C263.164 35.1622 250.725 39.9868 250.725 39.9868Z" fill="#FFB8B8"/>
<path d="M260.355 44.0077C256.242 45.5639 252.537 48.0388 249.521 51.2444C244.706 56.471 242.299 58.0791 242.299 58.0791C242.299 58.0791 236.681 60.0894 238.688 69.7384C239.691 74.5629 238.989 79.9905 238.036 84.2119C236.58 90.7631 235.857 97.4562 235.879 104.168V108.334C235.879 108.334 198.964 185.929 211.402 191.155C223.841 196.382 235.076 197.99 235.879 196.784C236.681 195.578 251.126 132.859 251.126 132.859C251.126 132.859 255.139 200 265.17 200C275.202 200 291.653 197.186 291.653 197.186L271.189 116.777C271.189 116.777 276.004 103.108 263.967 93.4589L262.361 89.0364C269.018 89.0398 272.061 46.8255 265.17 43.2036C265.17 43.2036 263.565 41.9975 260.355 44.0077Z" fill="#2F2E41"/>
<path d="M250.324 65.7181L244.706 80.5937L231.465 108.335C231.465 108.335 225.446 126.427 230.261 126.427C235.076 126.427 238.688 109.139 238.688 109.139L253.534 85.8203L261.96 64.9141L250.324 65.7181Z" fill="#FFB8B8"/>
<path d="M223.641 200C227.519 200 230.663 198.2 230.663 195.979C230.663 193.759 227.519 191.959 223.641 191.959C219.763 191.959 216.619 193.759 216.619 195.979C216.619 198.2 219.763 200 223.641 200Z" fill="#2F2E41"/>
<path d="M277.409 200C281.287 200 284.431 198.2 284.431 195.979C284.431 193.759 281.287 191.959 277.409 191.959C273.53 191.959 270.387 193.759 270.387 195.979C270.387 198.2 273.53 200 277.409 200Z" fill="#2F2E41"/>
<path d="M259.723 15.9194H259.723C259.165 15.9205 258.608 15.9759 258.061 16.0849C257.073 15.6041 255.989 15.3538 254.89 15.3525H254.602C249.052 15.3525 244.553 20.3844 244.553 26.5916V26.5916H246.413L246.713 24.3011L247.153 26.5916H248.702C248.221 28.4294 247.979 30.3221 247.983 32.2223V43.6619H250.795L252.422 39.4234L252.015 43.6619H270.087L271.567 39.8087L271.197 43.6619H273.232V34.6798C273.232 24.3187 267.184 15.9194 259.723 15.9194Z" fill="#2F2E41"/>
<path d="M255.738 13.4111H258.39C258.939 13.4111 259.466 13.6296 259.854 14.0184C260.242 14.4073 260.46 14.9347 260.46 15.4846V27.6682C260.46 28.2181 260.242 28.7455 259.854 29.1344C259.466 29.5232 258.939 29.7417 258.39 29.7417H255.738C255.466 29.7417 255.197 29.688 254.946 29.5838C254.695 29.4796 254.467 29.3269 254.275 29.1344C254.083 28.9418 253.93 28.7133 253.826 28.4617C253.722 28.2101 253.669 27.9405 253.669 27.6682V15.4846C253.669 14.9347 253.887 14.4073 254.275 14.0184C254.663 13.6296 255.189 13.4111 255.738 13.4111Z" fill="#D0CDE1"/>
<path d="M257.064 38.9276C260.44 38.9276 263.176 36.1858 263.176 32.8036C263.176 29.4215 260.44 26.6797 257.064 26.6797C253.689 26.6797 250.952 29.4215 250.952 32.8036C250.952 36.1858 253.689 38.9276 257.064 38.9276Z" fill="#1976D3"/>
<path d="M257.064 35.8661C258.752 35.8661 260.12 34.4952 260.12 32.8042C260.12 31.1131 258.752 29.7422 257.064 29.7422C255.377 29.7422 254.008 31.1131 254.008 32.8042C254.008 34.4952 255.377 35.8661 257.064 35.8661Z" fill="#D0CDE1"/>
<path d="M257.064 34.1651C257.814 34.1651 258.422 33.5558 258.422 32.8042C258.422 32.0526 257.814 31.4434 257.064 31.4434C256.314 31.4434 255.706 32.0526 255.706 32.8042C255.706 33.5558 256.314 34.1651 257.064 34.1651Z" fill="#1976D3"/>
</svg>
