<svg width="625" height="562" viewBox="0 0 625 562" fill="none" xmlns="http://www.w3.org/2000/svg">
<path fill-rule="evenodd" clip-rule="evenodd" d="M393.088 0.84009C475.368 -5.8486 555.43 28.1565 622.678 76.009C690.418 124.211 751.111 188.466 770.376 269.311C788.953 347.271 747.115 422.535 723.503 499.122C699.437 577.181 693.107 666.106 631.495 719.772C567.69 775.348 477.522 792.773 393.088 786.926C312.281 781.331 243.456 735.376 177.533 688.338C111.044 640.896 38.8078 592.714 12.5471 515.399C-13.8638 437.643 4.73278 351.647 37.6111 276.394C68.2643 206.233 128.59 158.174 189.119 111.254C251.75 62.7041 314.087 7.26219 393.088 0.84009Z" fill="#1976D3"/>
</svg>
